<svg width="91" height="74" viewBox="0 0 91 74" xmlns="http://www.w3.org/2000/svg" xmlns:xlink="http://www.w3.org/1999/xlink"><defs><path id="a" d="M0 .003h89.634v72.97H0"/><path id="c" d="M0 .003h89.634v72.97H0z"/></defs><g fill="none" fill-rule="evenodd"><path d="M53.62 65.68h35.43l-.01.516c0 1.712-1.376 3.1-3.07 3.1H54.193M34.51 21.59c0 7.257-5.826 13.14-13.013 13.14S8.484 28.846 8.484 21.59c0-7.257 5.826-13.14 13.013-13.14S34.51 14.334 34.51 21.59zM1.4 72.23V51.664c0-9.676 7.767-11.85 17.35-11.85h5.783c9.583 0 17.567 2.174 17.567 11.85v12.46M9.802 72.23V53.127" stroke="#20A28C" stroke-width="2.2"/><path d="M41.553 63.614h8.33c2.402 0 4.348 1.966 4.348 4.39 0 2.424-1.945 4.39-3.324 4.39H34.074V53.127M33.93 17.647h43.855c1.695 0 3.07 1.388 3.07 3.1v44.48M20.495 39.96v-5.21" stroke="#20A28C" stroke-width="2.2"/><path stroke="#20A28C" stroke-width="2.2" d="M34.36 23.845H75.23v32.022H42.1M25.842 39.96v-6.222"/><mask id="b" fill="#fff"><use xlink:href="#a"/></mask><path d="M15.15.003V3.93M7.688 2.407l1.945 3.4M2.028 7.766L5.395 9.73M0 15.13h3.888" stroke="#20A28C" stroke-width="2.2" mask="url(#b)"/><mask id="d" fill="#fff"><use xlink:href="#c"/></mask><path stroke="#20A28C" stroke-width="2.2" mask="url(#d)" d="M42.1 38.08h-7.453v-7.526H42.1zM54.138 38.08h-7.453v-7.526h7.453zM66.176 38.08h-7.452v-7.526h7.452zM54.138 50.234h-7.453V42.71h7.453zM66.176 50.234h-7.452V42.71h7.452zM37.976 42.71H42.1v7.524"/></g></svg>