<?xml version="1.0" encoding="UTF-8" standalone="no"?>
<svg width="250px" height="250px" viewBox="0 0 250 250" version="1.1" xmlns="http://www.w3.org/2000/svg" xmlns:xlink="http://www.w3.org/1999/xlink">
    <!-- Generator: sketchtool 3.6.1 (26313) - http://www.bohemiancoding.com/sketch -->
    <title>69B735DC-0371-48E3-82B2-3049EB441081</title>
    <desc>Created with sketchtool.</desc>
    <defs></defs>
    <g id="Page-1" stroke="none" stroke-width="1" fill="none" fill-rule="evenodd">
        <g id="indication" transform="translate(-920.000000, -288.000000)">
            <g id="icon_03" transform="translate(920.000000, 288.000000)">
                <path d="M233.161419,62.7549842 L187.245016,16.8385806 L125,0 L62.2450158,16.8385806 L16.3286121,62.7549842 L-2.84217094e-14,125 L16.8385806,187.245016 L62.7549842,233.161419 L125,250 L187.245016,233.161419 L233.161419,187.245016 L250,125 L233.161419,62.7549842 Z" id="Path-Copy-2" fill="#373232"></path>
                <g id="icon" transform="translate(50.000000, 65.000000)" stroke="#FFFFFF">
                    <path d="M37.037037,56.9444444 L15.7407407,56.9444444 L15.7407407,35.6481481 L37.037037,35.6481481 L37.037037,56.9444444 Z" id="Stroke-1"></path>
                    <path d="M67.5925926,56.9444444 L46.2962963,56.9444444 L46.2962963,35.6481481 L67.5925926,35.6481481 L67.5925926,56.9444444 Z" id="Stroke-2"></path>
                    <path d="M37.037037,88.4259259 L15.7407407,88.4259259 L15.7407407,67.1296296 L37.037037,67.1296296 L37.037037,88.4259259 Z" id="Stroke-3"></path>
                    <path d="M67.5925926,88.4259259 L46.2962963,88.4259259 L46.2962963,67.1296296 L67.5925926,67.1296296 L67.5925926,88.4259259 Z" id="Stroke-4"></path>
                    <path d="M98.1481481,56.9444444 L76.8518519,56.9444444 L76.8518519,35.6481481 L98.1481481,35.6481481 L98.1481481,56.9444444 Z" id="Stroke-5"></path>
                    <path d="M0,18.9814815 L113.888889,18.9814815" id="Stroke-6" stroke-width="2"></path>
                    <path d="M16.769537,12.5 L8.4362037,12.5" id="Stroke-8"></path>
                    <path d="M16.769537,9.72222222 L8.4362037,9.72222222" id="Stroke-9"></path>
                    <path d="M16.769537,6.94444444 L8.4362037,6.94444444" id="Stroke-10"></path>
                    <path d="M106.026574,8.60333333 C106.026574,9.51537037 105.286759,10.2551852 104.374722,10.2551852 C103.461759,10.2551852 102.72287,9.51537037 102.72287,8.60333333 C102.72287,7.6912963 103.461759,6.95148148 104.374722,6.95148148 C105.286759,6.95148148 106.026574,7.6912963 106.026574,8.60333333 L106.026574,8.60333333 Z" id="Stroke-11"></path>
                    <path d="M109.5925,9.51768519 C109.5925,12.3741667 107.276759,14.6899074 104.420278,14.6899074 C101.563796,14.6899074 99.2489815,12.3741667 99.2489815,9.51768519 C99.2489815,6.6612037 101.563796,4.34546296 104.420278,4.34546296 C107.276759,4.34546296 109.5925,6.6612037 109.5925,9.51768519 L109.5925,9.51768519 Z" id="Stroke-13"></path>
                    <path d="M107.011759,13.9199074 L107.011759,12.9041667 C107.011759,11.6875 105.976574,11.4384259 104.759907,11.4384259 L104.025648,11.4384259 C102.808981,11.4384259 101.817315,11.6875 101.817315,12.9041667 L101.817315,13.9097222" id="Stroke-15"></path>
                    <path d="M93.4842593,88.8888889 C93.4842593,92.212963 90.7898148,94.9074074 87.4657407,94.9074074 C84.1416667,94.9074074 81.4472222,92.212963 81.4472222,88.8888889 C81.4472222,85.5648148 84.1416667,82.8703704 87.4657407,82.8703704 C90.7898148,82.8703704 93.4842593,85.5648148 93.4842593,88.8888889 L93.4842593,88.8888889 Z" id="Stroke-17" stroke-width="2"></path>
                    <path d="M81.6013889,88.4259259 L76.8513889,88.4259259 L76.8513889,67.1296296 L98.1476852,67.1296296 L98.1476852,88.4259259 L93.4847222,88.4259259" id="Stroke-19"></path>
                    <path d="M87.4657407,86.1111111 L87.4657407,91.975" id="Stroke-21"></path>
                    <path d="M90.3977778,89.0432407 L84.5338889,89.0432407" id="Stroke-23"></path>
                    <path d="M19.4444444,40.2777778 L26.8518519,40.2777778" id="Stroke-25"></path>
                    <path d="M50,40.2777778 L57.4074074,40.2777778" id="Stroke-27"></path>
                    <path d="M80.5555556,40.2777778 L87.962963,40.2777778" id="Stroke-29"></path>
                    <path d="M19.4444444,71.7592593 L26.8518519,71.7592593" id="Stroke-31"></path>
                    <path d="M50,71.7592593 L57.4074074,71.7592593" id="Stroke-33"></path>
                    <path d="M80.5555556,71.7592593 L87.962963,71.7592593" id="Stroke-35"></path>
                    <path d="M106.678704,26.8518519 L106.678704,41.8888889 L101.808333,46.7592593 L106.678704,51.6296296 L106.678704,111.111111 L149.502778,111.111111 L149.502778,26.8518519 L106.678704,26.8518519 L106.678704,26.8518519 Z" id="Stroke-37" stroke-width="2"></path>
                    <path d="M121.629537,46.5547222 C121.629537,49.4112037 119.313796,51.7269444 116.457315,51.7269444 C113.600833,51.7269444 111.286019,49.4112037 111.286019,46.5547222 C111.286019,43.6982407 113.600833,41.3825 116.457315,41.3825 C119.313796,41.3825 121.629537,43.6982407 121.629537,46.5547222 L121.629537,46.5547222 Z" id="Stroke-39"></path>
                    <path d="M121.629537,65.0732407 C121.629537,67.9297222 119.313796,70.245463 116.457315,70.245463 C113.600833,70.245463 111.286019,67.9297222 111.286019,65.0732407 C111.286019,62.2167593 113.600833,59.9010185 116.457315,59.9010185 C119.313796,59.9010185 121.629537,62.2167593 121.629537,65.0732407 L121.629537,65.0732407 Z" id="Stroke-41"></path>
                    <path d="M121.629537,83.5917593 C121.629537,86.4482407 119.313796,88.7639815 116.457315,88.7639815 C113.600833,88.7639815 111.286019,86.4482407 111.286019,83.5917593 C111.286019,80.7352778 113.600833,78.419537 116.457315,78.419537 C119.313796,78.419537 121.629537,80.7352778 121.629537,83.5917593 L121.629537,83.5917593 Z" id="Stroke-43"></path>
                    <path d="M121.629537,102.110278 C121.629537,104.966759 119.313796,107.2825 116.457315,107.2825 C113.600833,107.2825 111.286019,104.966759 111.286019,102.110278 C111.286019,99.2537963 113.600833,96.9380556 116.457315,96.9380556 C119.313796,96.9380556 121.629537,99.2537963 121.629537,102.110278 L121.629537,102.110278 Z" id="Stroke-45"></path>
                    <path d="M149.502778,37.037037 L106.678704,37.037037" id="Stroke-47"></path>
                    <path d="M135.613889,32.4074074 L120.567593,32.4074074" id="Stroke-49"></path>
                    <path d="M149.502778,55.5555556 L106.678704,55.5555556" id="Stroke-51"></path>
                    <path d="M149.502778,74.0740741 L106.678704,74.0740741" id="Stroke-53"></path>
                    <path d="M149.502778,92.5925926 L106.678704,92.5925926" id="Stroke-55"></path>
                    <path d="M106.755185,104.166667 L-0.00037037037,104.166667 L-0.00037037037,0.462962963 L113.888519,0.462962963 L113.888519,27.0064815" id="Stroke-57" stroke-width="2"></path>
                </g>
            </g>
        </g>
    </g>
</svg>