<svg width="270" height="188" viewBox="0 0 270 188" xmlns="http://www.w3.org/2000/svg"><g transform="translate(1 -10)" stroke="#373232" fill="none" fill-rule="evenodd"><rect fill="#4A90E2" transform="rotate(-26 159.194 98.88)" x="-2.806" y="67.879" width="324" height="62" rx="1"/><path d="M1.798 141.156l5.378 11.027m-1.783-12.78l5.378 11.027m-3.58-11.905l5.38 11.028M3.6 140.28l5.38 11.027m1.81-14.535l5.38 11.028m-1.785-12.782l5.38 11.028m-3.58-11.904l5.38 11.027m-8.976-9.28l5.38 11.03m1.81-14.54l5.38 11.03m-1.79-12.78l5.38 11.02m-3.58-11.91l5.38 11.03m-8.98-9.28l5.38 11.03M28.76 128l5.38 11.028m-1.78-12.78l5.378 11.03m-3.58-11.907l5.38 11.03m-8.974-9.27l5.38 11.03m-26.95-.5l7.31 14.99m10.665-23.76l7.31 14.99m3.47-20.25l5.38 11.03m-1.79-12.78l5.38 11.02M43.15 121l5.38 11.027m-8.977-9.274l5.38 11.03m1.81-14.54l5.38 11.023M50.34 117.48l5.38 11.03m-3.583-11.904l5.38 11.028m-8.974-9.275l5.378 11.02m1.82-14.54l5.38 11.03m-1.8-12.78l5.38 11.02m-3.58-11.91l5.38 11.02m-8.97-9.27L62.91 125m1.817-14.53l5.38 11.027m-1.784-12.78l5.38 11.03m-3.59-11.9l5.38 11.025M66.52 109.6l5.38 11.027m-26.95-.502l7.313 14.99m10.662-23.76l7.312 14.994m3.47-20.25l5.38 11.03M77.3 104.34l5.38 11.027m-3.583-11.904l5.378 11.028m-8.975-9.28l5.377 11.03m1.813-14.53l5.378 11.03m-1.784-12.78l5.38 11.03m-3.582-11.91l5.378 11.02m-8.973-9.27l5.378 11.03m1.812-14.53l5.38 11.03m-1.785-12.78l5.38 11.03M97.07 94.69l5.378 11.03m-8.973-9.275l5.378 11.027m1.812-14.54l5.38 11.02m-1.785-12.78l5.38 11.03m-3.582-11.9l5.378 11.03m-8.973-9.28l5.378 11.03m-26.95-.51l7.32 14.99m10.66-23.75l7.31 14.993m3.48-20.253l5.38 11.03M113.26 86.8l5.38 11.022m-3.59-11.902l5.377 11.03m-8.974-9.276l5.38 11.028m1.81-14.535l5.38 11.028m-1.783-12.78l5.38 11.027m-3.582-11.905l5.378 11.028m-8.974-9.275l5.38 11.028m1.81-14.534l5.378 11.027m-1.783-12.78l5.38 11.03m-3.582-11.9l5.375 11.02m-8.974-9.27l5.38 11.03m1.81-14.53l5.38 11.03m-1.784-12.78l5.378 11.03m-3.58-11.9l5.378 11.03m-8.974-9.27l5.38 11.03m-26.95-.5l7.31 14.99M134.82 76.3l7.31 14.99m3.475-20.25l5.378 11.03m-1.783-12.8l5.378 11.025m-3.58-11.903l5.38 11.028m-8.978-9.28l5.38 11.027m1.81-14.535l5.38 11.028m-1.784-12.78l5.378 11.027m-3.58-11.905l5.38 11.028m-8.976-9.274l5.38 11.027m1.81-14.533l5.38 11.026m-1.784-12.78l5.378 11.027m-3.58-11.905l5.38 11.028m-8.976-9.274l5.38 11.028m1.81-14.535l5.38 11.028m-1.784-12.78l5.378 11.026m-3.582-11.91l5.38 11.03m-8.974-9.28l5.38 11.03m-26.95-.51l7.31 14.99m10.664-23.76l7.313 14.99m3.48-20.26l5.38 11.03m-1.78-12.78l5.38 11.03m-3.58-11.91l5.38 11.03m-8.97-9.28l5.38 11.03m1.81-14.54l5.38 11.024m-1.78-12.78l5.38 11.03m-3.58-11.904l5.38 11.03m-8.97-9.275l5.38 11.03m1.81-14.53l5.38 11.03m-1.78-12.78l5.38 11.03m-3.58-11.903l5.38 11.025m-8.972-9.27l5.38 11.03m1.81-14.538l5.38 11.03m-1.79-12.78l5.38 11.023m-3.58-11.908l5.38 11.03m-8.974-9.275l5.377 11.03m-26.95-.504l7.31 14.998m10.66-23.76l7.317 14.99m3.47-20.257l5.38 11.03m-1.8-12.78l5.38 11.027m-3.588-11.9l5.38 11.03m-8.973-9.276l5.38 11.027m1.81-14.536l5.38 11.02M230.1 29.8l5.38 11.02m-3.58-11.91l5.38 11.027m-8.97-9.274l5.38 11.027m1.81-14.53l5.38 11.03m-1.78-12.78l5.38 11.024M240.9 24.53l5.38 11.023m-8.97-9.28l5.38 11.03m1.816-14.535l5.38 11.027M248.1 21.02l5.38 11.03m-3.58-11.906l5.376 11.03M246.3 21.9l5.38 11.03m-26.95-.51l7.31 14.99m10.66-23.75l7.31 14.99m3.475-20.25l5.38 11.025m-1.79-12.784l5.38 11.03m-3.58-11.9l5.377 11.03m-8.97-9.28l5.38 11.03m1.81-14.53l5.37 11.03m-1.782-12.78l5.38 11.03m-3.586-11.9l5.38 11.03m-8.974-9.274l5.38 11.03m-8.973-9.276l7.32 14.99m-250 103.362l8.62 17.686m9.35-26.46l8.628 17.69m9.344-26.46l8.63 17.69m9.35-26.456l8.63 17.683m9.35-26.45l8.63 17.69m9.35-26.45l8.63 17.69m9.35-26.46l8.62 17.69m9.35-26.452l8.62 17.687m9.35-26.45l8.625 17.69m9.35-26.46l8.627 17.69m9.35-26.457l8.63 17.69m9.35-26.457l8.625 17.69m9.35-26.455l8.63 17.69m9.342-26.46l8.625 17.69m9.347-26.456l8.63 17.69"/></g></svg>