<svg width="297" height="205" viewBox="0 0 297 205" xmlns="http://www.w3.org/2000/svg"><g stroke="#373232" fill="none" fill-rule="evenodd"><path d="M241.334 27.135L36.78.695c-.543-.07-1.062.32-1.156.867L.77 203.015l295.8 2.29" fill="#20A28C"/><path d="M38.568 161.678l-14.772-2.11L15.36 206h16.007zm22 28l-14.772-2.11L42.36 206h16.007zm29-6l-14.772-2.11L70.36 206h16.007zm30-1l-14.772-2.11L100.36 206h16.007zm31-8l-14.772-2.11L130.36 206h16.007zm29 5l-14.772-2.11L160.36 206h16.007zm34-16l-14.772-2.11L190.36 206h16.007zm28 10l-14.772-2.11L220.36 206h16.007zm30-3l-14.772-2.11L250.36 206h16.007zM98.87 41.46l1.345-13.544 72.612 11.47-.925 13.11zm-2.045 18.582l1.345-13.544 56.853 8.86-.925 13.11zM47.907 19.14l-8.373 48.782 45.1 7.424 5.55-49.762zm.908.818l35.76 56.108M39.77 68.32l50.365-42.608"/></g></svg>