<svg width="290" height="205" viewBox="0 0 290 205" xmlns="http://www.w3.org/2000/svg"><g stroke="#373232" fill="none" fill-rule="evenodd"><path fill="#FFB532" d="M241.334 27.135L35.796.568.77 203.015h288.827"/><path d="M207.892 48.935L56.796 30.568 21.77 233.015l149.978 16.577zm40.198 5.1l-20.294-2.467-35.027 202.447M50.22 65.845L204.5 83.5m5.72 52.346l63.055 7.215m-71.055 42.79l84.885 9.713M220 86l38.614 4.393M28.22 195.846l150.725 17.148M63 44l15.744 1.148M62 50l15.744 1.148M61 56l15.744 1.148"/><path d="M186.08 65.26c-2.956 1.488-3.742 5.923-3.742 5.923l9.82.817s.378-4.156-1.48-6.16c1.053-.652 1.755-1.817 1.755-3.146 0-2.04-1.654-3.694-3.695-3.694-2.04 0-3.694 1.654-3.694 3.694 0 .998.395 1.902 1.037 2.567zm49.663 50c-2.957 1.488-3.743 5.923-3.743 5.923l9.82.817s.378-4.156-1.48-6.16c1.053-.652 1.755-1.817 1.755-3.146 0-2.04-1.654-3.694-3.695-3.694-2.04 0-3.694 1.654-3.694 3.694 0 .998.395 1.902 1.037 2.567z"/><ellipse cx="238" cy="116" rx="14" ry="14"/><path d="M229.743 164.26c-2.957 1.488-3.743 5.923-3.743 5.923l9.82.817s.378-4.156-1.48-6.16c1.053-.652 1.755-1.817 1.755-3.146 0-2.04-1.654-3.694-3.695-3.694-2.04 0-3.694 1.654-3.694 3.694 0 .998.395 1.902 1.037 2.567z"/><ellipse cx="232" cy="165" rx="14" ry="14"/><path d="M49.625 63.564l127.504 151.65M29.27 196.912L201.36 83.27m81.417 95.043l-28.486-3.3.87-11.92 23.498 2.387m-10.905-40.693l-4.46-.773.87-11.922"/></g></svg>