<svg width="292" height="203" viewBox="0 0 292 203" xmlns="http://www.w3.org/2000/svg" xmlns:xlink="http://www.w3.org/1999/xlink"><defs><path d="M.114 2.5C2.68 3.68 5.547 4.338 8.57 4.338c3.34 0 6.488-.804 9.255-2.225V.147H.115V2.5z" id="k"/><path d="M.137 30.333c3.218 2.182 7.12 3.46 11.325 3.46 4.206 0 8.108-1.278 11.326-3.46V.125H.138v30.208z" id="m"/><path d="M19.936.052C8.942.072.032 8.76 0 19.486v.115c.032 10.74 8.962 19.44 19.973 19.44 11.012 0 19.942-8.69 19.974-19.43v-.11C39.915 8.76 31.005.07 20.01.05h-.074z" id="o"/><path d="M0 19.657c0 10.764 8.942 19.49 19.973 19.49 11.03 0 19.974-8.726 19.974-19.49 0-10.764-8.943-19.49-19.974-19.49C8.943.167 0 8.892 0 19.657z" id="p"/><path id="a" d="M96 111h62v10H96z"/><mask id="r" x="0" y="0" width="62" height="10" fill="#fff"><use xlink:href="#a"/></mask><path id="b" d="M94 126h72v10H94z"/><mask id="s" x="0" y="0" width="72" height="10" fill="#fff"><use xlink:href="#b"/></mask><path id="c" d="M86 167h92v10H86z"/><mask id="t" x="0" y="0" width="92" height="10" fill="#fff"><use xlink:href="#c"/></mask><path id="d" d="M84 179h68v10H84z"/><mask id="u" x="0" y="0" width="68" height="10" fill="#fff"><use xlink:href="#d"/></mask><path id="e" d="M256.362 127.824h13.615l4.008 10h-17.623z"/><mask id="v" x="0" y="0" width="17.624" height="10" fill="#fff"><use xlink:href="#e"/></mask><path id="f" d="M254.237 141.616h19.08l4.29 10h-23.37z"/><mask id="w" x="0" y="0" width="23.371" height="10" fill="#fff"><use xlink:href="#f"/></mask><path id="g" d="M246.236 183.627h39.638l3.887 10h-43.52z"/><mask id="x" x="0" y="0" width="43.525" height="10" fill="#fff"><use xlink:href="#g"/></mask><path id="h" d="M244.13 197.134h45.18v10h-45.18z"/><mask id="y" x="0" y="0" width="45.178" height="10" fill="#fff"><use xlink:href="#h"/></mask><path d="M19.936.053C8.922.073 0 8.97 0 19.943 0 30.925 8.942 39.83 19.973 39.83c11.01 0 19.942-8.873 19.973-19.83v-.117C39.916 8.94 31.006.073 20.01.053h-.074z" id="z"/><path d="M0 20.058c0 10.984 8.942 19.89 19.973 19.89 11.03 0 19.974-8.906 19.974-19.89S31.004.168 19.973.168C8.943.17 0 9.075 0 20.06z" id="B"/><path id="i" d="M59 54h142v10H59z"/><mask id="D" x="0" y="0" width="142" height="10" fill="#fff"><use xlink:href="#i"/></mask><path id="j" d="M57 63h62v10H57z"/><mask id="E" x="0" y="0" width="62" height="10" fill="#fff"><use xlink:href="#j"/></mask></defs><g fill="none" fill-rule="evenodd"><path stroke="#373232" fill="#F2843A" d="M241.336 27.135L35.796.568.77 203.015l290.55 1.823z"/><path d="M81.787 169.53c1.505-10.703-6.13-20.626-17.055-22.16-10.924-1.536-20.998 5.897-22.503 16.602-1.51 10.703 6.13 20.628 17.05 22.163 10.92 1.536 21-5.9 22.5-16.604" stroke="#373232"/><path d="M62.19 181.983l.45-3.208-3.76-.53-.452 3.21c-2.245-.145-3.912.13-4.043 1.06-.166 1.18 2.25 2.494 5.4 2.936 3.147.45 5.832-.15 5.998-1.33.13-.93-1.396-1.65-3.594-2.13" stroke="#373232"/><path d="M72.91 169.017c-.072-.023-.15-.023-.23-.004.24-1.44 1.75-12.568-8.614-14.025-10.365-1.457-11.98 9.657-12.146 11.108-.074-.042-.148-.063-.224-.06-.578.022-.984 1.392-.908 3.06.076 1.668.607 3.002 1.184 2.98.077-.004.15-.032.22-.08 1.778 6.583 8.232 8.9 8.232 8.9s6.843-.448 10.366-6.285c.055.07.117.12.19.14.55.18 1.426-.95 1.96-2.54.532-1.58.52-3.01-.03-3.19" stroke="#373232" fill="#F2843A"/><path d="M72.16 153.95c-.41 2.922-4.17 4.808-8.4 4.213-4.23-.594-7.325-3.444-6.915-6.365.41-2.92 4.172-4.806 8.4-4.212 4.23.594 7.326 3.444 6.915 6.365" stroke="#373232" fill="#F2843A"/><path d="M52.578 174.17s-.83-4.35 1.463-10.41c0 0 2.59.025 5.87-2.79 0 0-3.07 7.926 12.2.134 0 0 1.33 6.512-.19 11.606 0 0 2.32-2.95 3.25-8.748 0 0 1.02-3.98-.79-7.058 0 0-3.31-5.097-11.22-5.474 0 0-10.16-1.506-12.84 8.586 0 0-2.39 7.174 2.28 14.155" stroke="#373232" fill="#F2843A"/><path fill="#373232" d="M63.187 172.54l-1.743 1.102-1.372-1.54"/><g transform="rotate(8 -1265.994 457.863)"><mask id="l" fill="#fff"><use xlink:href="#k"/></mask><path d="M13.27.147s-1.48 2.19-4.3 2.19c-2.822 0-4.303-2.19-4.303-2.19C.31.585.114 4.337.114 4.337h17.71S17.63.585 13.27.147" stroke="#373232" fill="#F2843A" mask="url(#l)"/></g><path d="M224.322 166.945c-10.923-1.535-21.002 5.924-22.51 16.66-1.51 10.735 6.123 20.685 17.046 22.22 10.924 1.536 21.003-5.926 22.51-16.66 1.51-10.737-6.122-20.684-17.046-22.22z" stroke="#373232" fill="#F2843A"/><g transform="rotate(8 -1114.932 1602.757)"><mask id="n" fill="#fff"><use xlink:href="#m"/></mask><path fill="#774F2B" mask="url(#n)" d="M8.762 31.692h5.4V27.38h-5.4"/><path d="M22.174 14.89c-.075-.014-.152-.003-.23.028.037-1.465-.015-12.728-10.482-12.728C.996 2.19.944 13.453.982 14.918c-.08-.03-.156-.042-.23-.03-.57.104-.782 1.522-.474 3.167.308 1.646 1.02 2.897 1.588 2.794.074-.02.14-.05.203-.11 1.74 4.1 5.21 6.12 7.41 7.03.12.64.69 1.13 1.38 1.13h1.2c.69 0 1.26-.49 1.38-1.14 2.2-.91 5.66-2.93 7.41-7.04.06.05.13.09.2.1.57.1 1.28-1.15 1.58-2.798.31-1.646.09-3.064-.48-3.167" stroke="#373232" fill="#F2843A" mask="url(#n)"/><path fill="#774F2B" mask="url(#n)" d="M13.035 19.744l-1.572 1.34-1.573-1.34"/><path d="M13.977 8.28c1.307-1.136 4.525-1.334 4.525-1.334 3.37-.346 2.917 10.97 2.917 10.97 1.45-2.322.5-11.217.5-11.217C20.16-.08 11.46.12 11.46.12S2.762-.072 1.002 6.7c0 0-.954 8.894.504 11.217 0 0-.452-11.317 2.917-10.97 0 0 3.218.197 4.525 1.333 0 0 1.006.79 2.515.74 1.508.05 2.514-.74 2.514-.74zm.286 21.31l-2.8 1.45-2.8-1.45C5.42 30.17.85 33.794.85 33.794h21.225s-4.57-3.622-7.81-4.202" stroke="#373232" fill="#F2843A" mask="url(#n)"/><path d="M11.463 31.04l-2.8-1.45s-.813.133-1.63.484l1.482 3.72 2.948-2.754z" stroke="#373232" fill="#F2843A" mask="url(#n)"/><path d="M11.463 31.04l2.8-1.45s.812.133 1.63.484l-1.483 3.72-2.947-2.754z" stroke="#373232" fill="#F2843A" mask="url(#n)"/></g><g transform="rotate(8 -641.932 417.866)"><use stroke="#373232" xlink:href="#o" transform="translate(0 .114)"/><mask id="q" fill="#fff"><use xlink:href="#p"/></mask><path stroke="#373232" mask="url(#q)" d="M17.273 36.993h5.4v-4.28h-5.4z"/><path d="M30.685 20.31c-.075-.012-.152-.002-.23.03.038-1.455-.015-12.637-10.48-12.637-10.468 0-10.52 11.182-10.483 12.636-.078-.04-.155-.05-.23-.03-.57.1-.78 1.51-.473 3.14.3 1.63 1.01 2.87 1.58 2.77.07-.02.14-.05.2-.11 1.74 4.07 5.21 6.08 7.41 6.98.12.64.69 1.12 1.38 1.12h1.19c.69 0 1.26-.49 1.38-1.13 2.2-.91 5.66-2.91 7.41-6.99.06.053.13.09.2.103.57.1 1.28-1.14 1.584-2.775.31-1.636.097-3.04-.47-3.145" stroke="#373232" fill="#F2843A" mask="url(#q)"/><path fill="#373232" mask="url(#q)" d="M21.546 25.13l-1.573 1.33-1.572-1.33"/><path d="M30.494 12.182c-1.765-6.743-10.49-6.546-10.49-6.546s-8.724-.197-10.49 6.546c0 0-.167.96-.188 2.11 0 0-.494 6.938.835 8.885 0 0 2.8-5.107 3.03-9.377.07-.015.14-.03.21-.04.98.862 5.51 4.546 10.96 4.177v-1.762s3.18 2.457 3.9 2.782l.38-.58s1 3.13.95 5.078c0 0 1-.974 1.19-7.512.15-2.305-.27-3.76-.27-3.76m-7.72 22.725l-2.8 1.438-2.8-1.438c-3.24.575-7.81 4.17-7.81 4.17H30.6s-4.57-3.595-7.81-4.17" stroke="#373232" fill="#F2843A" mask="url(#q)"/><path d="M19.973 36.346l-2.8-1.438s-.812.13-1.63.48l1.483 3.69 2.947-2.732z" stroke="#373232" mask="url(#q)"/><path d="M19.973 36.346l2.8-1.438s.813.13 1.63.48l-1.482 3.69-2.94-2.732z" stroke="#373232" fill="#F2843A" mask="url(#q)"/></g><use stroke="#373232" mask="url(#r)" stroke-width="2" transform="rotate(8 127 116)" xlink:href="#a"/><use stroke="#373232" mask="url(#s)" stroke-width="2" transform="rotate(8 130 131)" xlink:href="#b"/><use stroke="#373232" mask="url(#t)" stroke-width="2" transform="rotate(8 132 172)" xlink:href="#c"/><use stroke="#373232" mask="url(#u)" stroke-width="2" transform="rotate(8 118 184)" xlink:href="#d"/><use stroke="#373232" mask="url(#v)" stroke-width="2" transform="rotate(8 265.174 132.824)" xlink:href="#e"/><use stroke="#373232" mask="url(#w)" stroke-width="2" transform="rotate(8 265.922 146.616)" xlink:href="#f"/><use stroke="#373232" mask="url(#x)" stroke-width="2" transform="rotate(8 268 188.627)" xlink:href="#g"/><use stroke="#373232" mask="url(#y)" stroke-width="2" transform="rotate(8 266.72 202.134)" xlink:href="#h"/><g transform="rotate(8 -697.788 1571.42)"><g transform="translate(0 .116)"><mask id="A" fill="#fff"><use xlink:href="#z"/></mask><use stroke="#373232" xlink:href="#z"/><path d="M39.946 19.942c0-10.984-8.942-19.89-19.973-19.89C8.943.052 0 8.96 0 19.942s8.942 19.89 19.973 19.89c11.03 0 19.973-8.905 19.973-19.89" stroke="#373232" mask="url(#A)"/></g><mask id="C" fill="#fff"><use xlink:href="#B"/></mask><path fill="#F4C5A2" mask="url(#C)" d="M18.075 34.552h3.797v-4.367h-3.797"/><path d="M30.455 18.942c.037-1.484-.016-12.894-10.48-12.894-10.468 0-10.52 11.412-10.483 12.894-.078-.03-.155-.042-.23-.03-.57.106-.78 1.542-.473 3.21.3 1.666 1.01 2.934 1.58 2.83 2.67 6.373 9.6 7.68 9.6 7.68s6.92-1.307 9.59-7.68c.57.104 1.28-1.164 1.58-2.83.3-1.668.09-3.104-.48-3.21-.08-.012-.15 0-.23.03z" stroke="#373232" fill="#F2843A" mask="url(#C)"/><path fill="#373232" mask="url(#C)" d="M21.547 23.832l-1.574 1.357-1.573-1.36"/><path d="M33.457 32.77c-.355-1.513-.61-2.74-.917-4.263-.917-4.87.306-9.436-.917-14.306C30.1 9.35 25.23 5.7 20.05 5.98h-.153c-5.18-.28-10.05 3.364-11.574 8.22-1.222 4.87 0 9.437-.916 14.307-.306 1.522-.563 2.75-.918 4.262-.57 2.4-.35 6.29 5.15 6.01h6.54v-6.82s-3.45-1.15-6.49-4.93c0 0-2.34-2.53-1.71-7.42v-.17s6.38-1.15 9.9-3.29V16v.15l.07.044.07-.045V16v.15c3.52 2.134 9.9 3.284 9.9 3.284v.164c.63 4.89-1.71 7.42-1.71 7.42-3.038 3.78-6.488 4.925-6.488 4.925v6.82h6.55c5.5.27 5.72-3.616 5.157-6.02" stroke="#373232" fill="#F2843A" mask="url(#C)"/><path d="M21.872 35.288v-3.29h-3.797v3.29c-2.244.173-3.857.684-3.857 1.64 0 1.21 2.577 2.19 5.755 2.19 3.18 0 5.755-.98 5.755-2.19 0-.956-1.612-1.467-3.856-1.64" stroke="#373232" fill="#F2843A" mask="url(#C)"/><path d="M24.275 35.62s-1.48 2.225-4.302 2.225c-2.82 0-4.302-2.225-4.302-2.225-4.35.445-4.55 4.256-4.55 4.256h17.71s-.19-3.81-4.55-4.256" stroke="#373232" fill="#F2843A" mask="url(#C)"/></g><use stroke="#373232" mask="url(#D)" stroke-width="2" transform="rotate(8 130 59)" xlink:href="#i"/><use stroke="#373232" mask="url(#E)" stroke-width="2" transform="rotate(8 88 68)" xlink:href="#j"/></g></svg>