<svg width="151" height="432" viewBox="0 0 151 432" xmlns="http://www.w3.org/2000/svg"><g stroke="#373232" fill="none" fill-rule="evenodd"><path d="M148.668 576L1.553 43.603c-.295-1.068.338-2.17 1.398-2.455L152.82.785" fill="#20A28C"/><path d="M115.523 394.512l-3.505-12.843 40.002-13.87v14.87zM77.39 53.727l-4.504-12.843 70.657-20.293 4.702 12.276zm6 17l-4.504-12.843 55.27-15.998 4.702 12.273zm48.115 345L127 401.884l25.28-8.482v14.633zm-2.535 27.933l-3.556-12.095 26.867-11.163v13.633zM21.885 54.445l13.027 47.75 44.012-12.332-16-47.445zm1.168.358L79.176 90.54m-43.88 11.917l27.64-59.902m89.448 218.583c.034 15.66.08 31.68.14 48.04C112.358 297.51 83 260.433 83 216.5c0-43.84 29.235-80.854 69.274-92.606 0 17.135 0 34.912.007 53.31-18.085 5.37-31.28 22.12-31.28 41.952 0 19.868 13.245 36.644 31.386 41.982z"/><path d="M83.747 204.433c1.71-13.71 6.297-26.527 13.136-37.828l35.25 23.39c-5.334 5.962-9.057 13.397-10.486 21.62l-37.9-7.182zm50.583 97.365c-19.13-10.15-34.436-26.55-43.202-46.473l34.336-16.893c4.876 9.92 13.4 17.726 23.822 21.666l-14.956 41.7z"/></g></svg>