<svg width="158" height="431" viewBox="0 0 158 431" xmlns="http://www.w3.org/2000/svg" xmlns:xlink="http://www.w3.org/1999/xlink"><defs><path id="a" d="M33 99h34v10H33z"/><mask id="p" x="0" y="0" width="34" height="10" fill="#fff"><use xlink:href="#a"/></mask><path id="b" d="M43 125h46v10H43z"/><mask id="q" x="0" y="0" width="46" height="10" fill="#fff"><use xlink:href="#b"/></mask><path id="c" d="M52.487 155.146h36v10h-36z"/><mask id="r" x="0" y="0" width="36" height="10" fill="#fff"><use xlink:href="#c"/></mask><path id="d" d="M60.487 182.146h56v10h-56z"/><mask id="s" x="0" y="0" width="56" height="10" fill="#fff"><use xlink:href="#d"/></mask><path id="e" d="M71.487 212.146h46v10h-46z"/><mask id="t" x="0" y="0" width="46" height="10" fill="#fff"><use xlink:href="#e"/></mask><path id="f" d="M79.487 244.146h26v10h-26z"/><mask id="u" x="0" y="0" width="26" height="10" fill="#fff"><use xlink:href="#f"/></mask><path id="g" d="M88.487 267.146h56v10h-56z"/><mask id="v" x="0" y="0" width="56" height="10" fill="#fff"><use xlink:href="#g"/></mask><path id="h" d="M97.487 298.146h46v10h-46z"/><mask id="w" x="0" y="0" width="46" height="10" fill="#fff"><use xlink:href="#h"/></mask><path id="i" d="M108.487 327.146h46v10h-46z"/><mask id="x" x="0" y="0" width="46" height="10" fill="#fff"><use xlink:href="#i"/></mask><path id="j" d="M117.487 355.146h46v10h-46z"/><mask id="y" x="0" y="0" width="46" height="10" fill="#fff"><use xlink:href="#j"/></mask><path id="k" d="M127.487 383.146h46v10h-46z"/><mask id="z" x="0" y="0" width="46" height="10" fill="#fff"><use xlink:href="#k"/></mask><rect id="l" x="2.936" y="3.106" width="17" height="17" rx="4"/><mask id="A" x="0" y="0" width="17" height="17" fill="#fff"><use xlink:href="#l"/></mask><rect id="m" x="2.936" y="3.106" width="17" height="17" rx="4"/><mask id="B" x="0" y="0" width="17" height="17" fill="#fff"><use xlink:href="#m"/></mask><rect id="n" x="2.936" y="3.106" width="17" height="17" rx="4"/><mask id="C" x="0" y="0" width="17" height="17" fill="#fff"><use xlink:href="#n"/></mask><path id="o" d="M139.487 412.146h46v10h-46z"/><mask id="D" x="0" y="0" width="46" height="10" fill="#fff"><use xlink:href="#o"/></mask></defs><g transform="translate(1)" fill="none" fill-rule="evenodd"><path d="M147.668 576L.553 43.603c-.295-1.068.338-2.17 1.398-2.455L151.82.785 147.668 576z" fill="#F53047"/><path d="M103.103 92.325c2.188-.667 6.38-1.785 8.748-2.507l141.664-43.176m-145.008 63.714c52.633-16.04 158.898-48.124 158.898-48.124m-153.527 67.312l166.417-50.72M120.02 147.092c57.784-17.61 173.35-52.834 173.35-52.834m-168.124 70.177l180.686-55.07M131.208 183.32l183.176-55.83M136.05 202.547l186.786-56.93m-180.476 76.08l186.787-56.93M120.967 66.08l38.18 130.67M143.5 59.986l38.18 130.67M166.52 52.562l38.18 130.67" stroke="#373232" opacity=".2"/><path stroke="#373232" d="M179.93 184.74l-25.86-88.262 113.49-34.32"/><path d="M15.562 97.92L.552 43.602c-.294-1.068.34-2.17 1.4-2.455L151.817.785l-.405 56.116L15.858 98.218l-.296-.296z" stroke="#373232" fill="#F53047"/><path stroke="#373232" d="M63.896 271.975l85.166-24.752 8.334 29.506-85.246 24.965z"/><path stroke="#373232" d="M71.896 300.975l85.166-24.752 8.334 29.506-85.246 24.965z"/><path stroke="#373232" d="M79.896 329.975l85.166-24.752 8.334 29.506-85.246 24.965z"/><path stroke="#373232" d="M87.896 358.975l85.166-24.752 8.334 29.506-85.246 24.965z"/><path stroke="#373232" d="M95.896 387.975l85.166-24.752 8.334 29.506-85.246 24.965z"/><path stroke="#373232" d="M103.896 416.975l85.166-24.752 8.334 29.506-85.246 24.965zm-88-319L96.94 73.223l9.456 29.506-82.155 24.965zm16 58l83.166-24.752 9.334 29.506-84.246 24.965zm16 58l85.166-24.752 8.334 29.506-85.246 24.965z"/><path stroke="#373232" d="M55.896 242.975l85.166-24.752 8.334 29.506-85.246 24.965zm-32-116l82.148-24.752 9.352 29.506-83.246 24.965zm16 58l84.148-24.752 9.352 29.506-85.246 24.965z"/><g transform="translate(15 31)" stroke="#373232"><circle transform="rotate(-25 8.15 20.47)" cx="8.149" cy="20.469" r="6"/><circle transform="rotate(-25 25.308 14.675)" cx="25.308" cy="14.675" r="6"/><circle transform="rotate(-25 42.467 8.88)" cx="42.467" cy="8.88" r="6"/></g><use stroke="#373232" mask="url(#p)" stroke-width="2" transform="rotate(-16 50 104)" xlink:href="#a"/><use stroke="#373232" mask="url(#q)" stroke-width="2" transform="rotate(-16 66 130)" xlink:href="#b"/><use stroke="#373232" mask="url(#r)" stroke-width="2" transform="rotate(-16 70.487 160.146)" xlink:href="#c"/><use stroke="#373232" mask="url(#s)" stroke-width="2" transform="rotate(-16 88.487 187.146)" xlink:href="#d"/><use stroke="#373232" mask="url(#t)" stroke-width="2" transform="rotate(-16 94.487 217.146)" xlink:href="#e"/><use stroke="#373232" mask="url(#u)" stroke-width="2" transform="rotate(-16 92.487 249.146)" xlink:href="#f"/><use stroke="#373232" mask="url(#v)" stroke-width="2" transform="rotate(-16 116.487 272.146)" xlink:href="#g"/><use stroke="#373232" mask="url(#w)" stroke-width="2" transform="rotate(-16 120.487 303.146)" xlink:href="#h"/><use stroke="#373232" mask="url(#x)" stroke-width="2" transform="rotate(-16 131.487 332.146)" xlink:href="#i"/><use stroke="#373232" mask="url(#y)" stroke-width="2" transform="rotate(-16 140.487 360.146)" xlink:href="#j"/><use stroke="#373232" mask="url(#z)" stroke-width="2" transform="rotate(-16 150.487 388.146)" xlink:href="#k"/><use mask="url(#A)" transform="rotate(-17 228.362 -20.96)" xlink:href="#l" stroke="#373232" stroke-width="2"/><use mask="url(#B)" transform="rotate(-17 214.715 -204.275)" xlink:href="#m" stroke="#373232" stroke-width="2"/><use mask="url(#C)" transform="rotate(-17 202.296 -281.378)" xlink:href="#n" stroke="#373232" stroke-width="2"/><use stroke="#373232" mask="url(#D)" stroke-width="2" transform="rotate(-16 162.487 417.146)" xlink:href="#o"/></g></svg>