<svg width="236" height="270" viewBox="0 0 236 270" xmlns="http://www.w3.org/2000/svg"><g stroke="#373232" fill="none" fill-rule="evenodd"><path d="M171.875 96.703s26.465 4.835 11.89-42.758C171.875 15.117 235 16.957 235 .707"/><path d="M13.643 233.845c-16.3-16.645-16.017-43.6.63-59.9l91.058-89.167c16.65-16.3 43.61-16.017 59.91.628l21.36 21.815c16.3 16.65 16.02 43.6-.63 59.9l-91.06 89.17c-16.64 16.3-43.6 16.02-59.9-.63l-21.36-21.81z" fill="#F53047"/><path d="M180.63 159.192l-65.243 63.886c-16.947 16.597-44.39 16.308-60.988-.64l-7.14-7.288c-16.6-16.947-16.31-44.392.64-60.987l65.24-63.887c13.22-12.95 32.82-15.57 48.68-8.068-16.74-13.24-41.28-12.333-56.918 2.973l-89.96 88.1c-17.53 16.98-18.315 43.66-.64 60.99l20.29 20.71c17.458 18.65 44.04 17.24 60.987.64l89.96-88.09c15.63-15.303 17.053-39.82 4.166-56.84 7.17 16.02 4.137 35.55-9.087 48.5z" fill="#F53047"/><path d="M177.097 97.524l-2.37-2.42L84.84 183.12l2.37 2.422z"/><path d="M128.48 145.865l-3.098-3.164c-2.362-2.41-2.32-6.31.09-8.67l15.473-15.15c2.413-2.36 6.317-2.32 8.68.09l3.098 3.17c2.362 2.41 2.32 6.32-.09 8.68l-15.473 15.15c-2.41 2.36-6.318 2.32-8.68-.09z" fill="#F53047"/></g></svg>