<svg width="286" height="276" viewBox="0 0 286 276" xmlns="http://www.w3.org/2000/svg"><g transform="translate(-26 -13)" fill="none" fill-rule="evenodd"><path d="M74.266 223.888s-26.603 30.68-16.47 49.596c6.548 12.22 32.157 19.98 77.636 9.877 115.884-25.74 86.982-166.49 189.11-200.98" stroke="#373232"/><path d="M175.964 43.854h.002c.178.1.35.202.527.304.178.102.35.202.53.304l-.002.003c5.13 2.975 9.73 5.758 13.75 8.265l2.78-4.81c.94-1.622.38-3.714-1.24-4.65 0 0-3.2-2.54-10.282-6.63-7.08-4.088-10.884-5.59-10.884-5.59-1.62-.936-3.71-.374-4.65 1.248l-2.74 4.753c3.717 2.01 7.81 4.27 12.227 6.81z" stroke="#373232" fill="#F2843A"/><path d="M206.574 153.026l18.833-35.19L210.35 65.06s-12.114-8.908-32.8-20.915l.002-.002-.53-.304-.526-.31h-.002c-20.74-11.91-34.51-17.95-34.51-17.95L88.748 38.93 67.69 72.84 55.8 80.49s-20.604 37.486-23.105 42.675c-2.5 5.19-10.605 42.6-1.643 60.275 8.4 16.566 37.453 33.14 44.096 36.852 7.095 4.007 34.976 21.406 53.962 19.762 19.744-1.708 48.135-26.8 51.378-31.56 3.244-4.76 25.407-41.347 25.407-41.347l.68-14.12z" stroke="#373232" fill="#F2843A"/><path d="M82.604 207.378c-16.944-9.783-29.408-16.89-35.556-27.277-18.525-31.29 5.744-67.12 20.872-93.32 20.15-34.9 64.91-46.91 99.776-26.78 34.868 20.13 46.843 64.91 26.695 99.8-14.88 25.78-34.7 63.27-69.6 64.17-12.34.32-25-6.66-42.18-16.58z" stroke="#373232"/><path d="M191.445 158.092c-19.24 33.326-61.83 44.758-95.128 25.534-33.297-19.224-44.692-61.824-25.45-95.15 19.24-33.326 61.83-44.758 95.127-25.534 33.297 19.224 44.692 61.824 25.45 95.15z" stroke="#373232"/><path d="M223.596 111.487l9.423-3.917s4.62-2.414 3.08-6.54c0 0-2.51-4.223-4.01-11.333-1.51-7.11-1.45-17.142-4.81-17.798-3.48-.68-14.18.29-14.18.29l-.75-.09 11.23 39.38zM95.93 37.135l39.36-9.87s-4.504-9.75-6.83-12.423c-2.25-2.583-10.906 2.487-17.816 4.738-6.91 2.25-11.82 2.19-11.82 2.19-4.346.727-4.123 5.94-4.123 5.94l1.23 9.425zM74.45 219.77c-2.61-1.455-8.67-4.893-15.577-9.535l-4.59 7.95s-2.805 4.447.416 6.48c4.32 2.726 25.2 14.55 25.2 14.55s3.56 2.23 6.79-3.36l4.07-7.06c-7.47-3.765-13.52-7.44-16.32-9.024z" stroke="#373232" fill="#F2843A"/><path d="M149.36 203.928c.134 1.867-2.047 3.56-4.847 3.764l-16.968 1.23c-2.8.203-5.2-1.158-5.334-3.025-.13-1.868 2.05-3.56 4.85-3.764l16.97-1.23c2.8-.204 5.2 1.158 5.34 3.025zm-6.823 13.28l-13.58.896-.204-3.124 13.58-.896zm-67.73-20.69l22.095 12.755 1.566-2.712-22.094-12.75zm-4.077-9.143l36.824 21.26 3.405-5.897-36.83-21.26zm111.236-34.305c-16.23 28.108-52.287 37.787-80.368 21.574-28.08-16.212-37.727-52.28-21.5-80.388 16.23-28.11 52.288-37.787 80.37-21.575l4-6.92c-31.91-18.42-72.86-7.43-91.297 24.51-18.43 31.93-7.48 72.89 24.43 91.31 31.91 18.426 72.86 7.43 91.3-24.5l-6.93-4z" stroke="#373232"/><text transform="rotate(30 130.594 124.34)" font-family="DS-Digital-Italic, DS-Digital" font-size="31" font-style="italic" fill="#373232"><tspan x="85.594" y="133.839">0:07:34</tspan></text><circle stroke="#353535" fill="#F2843A" transform="rotate(-150 185.404 155.406)" cx="185.404" cy="155.406" r="6"/></g></svg>