<svg width="235" height="154" viewBox="0 0 235 154" xmlns="http://www.w3.org/2000/svg"><g stroke="#000" fill="#FFB532" fill-rule="evenodd"><path d="M42.68 116.726c.43.463 2.145.96 2.32 1.573l2.695.71L255.12-6.95l-3.954-2.237L42.68 116.725zm10.262 11.97L257.986 2.506l-2.865-9.45L47.7 119.01l2.87 4.85z"/><path d="M53.48 135.845L259.59 9.75 259.255 1 52.942 128.695l-.873 7.224z"/><path d="M.94 153.065l41.277-35.568s3.57-.4 7.76 5.016c4.192 5.42 2.383 13.723 2.383 13.723L.94 153.066z"/><path d="M17.51 138.788L.94 153.065l18.59-6.085c.21-2.828-.725-5.56-2.02-8.192z"/></g></svg>