<svg width="294" height="204" viewBox="0 0 294 204" xmlns="http://www.w3.org/2000/svg"><g stroke="#373232" fill="none" fill-rule="evenodd"><path fill="#4A90E2" d="M244.334 27.135L38.796.568-2.524 225l295.135-20.978z"/><path d="M262.74 94.944L99.19 73 75.33 219.43h221.797z"/><path d="M269.74 206.944L94.19 183l-3.804 24.34 189.504 17.62zm-101-46L99.19 151l-1.804 10.34 70.504 9.62zm83 11L182.19 162l-1.804 10.34 70.504 9.62z"/><path d="M55.103 47.24c2.265.32 5.63.656 8.08 1.002C116.2 55.74 256.357 74.434 256.357 74.434M52.38 65.866c54.48 7.705 210.796 29.536 210.796 29.536M49.56 84.618c57.42 8.12 218.176 30 218.176 30M46.383 103.603c59.812 8.46 226.86 31.6 226.86 31.6M43.79 121.53c62.344 8.817 234.866 32.575 234.866 32.575m-238.444-11.94c63.203 8.94 243.944 34.996 243.944 34.996M35.212 162.167c66.31 8.94 255.94 34.996 255.94 34.996m-259.94-12.995c63.203 8.94 243.944 34.996 243.944 34.996M81.476 30.583L53.736 211.6m50.74-177.018L76.737 215.6m51.74-178.018L100.737 218.6m51.74-177.018L124.737 222.6m51.74-178.018L148.737 225.6m51.74-179.018L172.737 227.6m50.74-177.018L195.737 231.6m50.74-178.018L218.737 234.6m43.74-141.018L234.737 274.6M274.5 143.5l-16.763 131.1" opacity=".2"/><path d="M251.348 53.562L58.796 27.568 23.77 230.015m71.57-45.613l126.337 65.292"/><path d="M273.74 135.944L105.19 112l-2.804 17.34 176.504 24.62zm11 41L263.19 174l-.804 10.34 26.504 4.62z"/></g></svg>