<svg width="50" height="85" viewBox="0 0 50 85" xmlns="http://www.w3.org/2000/svg" xmlns:xlink="http://www.w3.org/1999/xlink"><defs><rect id="a" width="50" height="84.167" rx="5"/><mask id="c" x="0" y="0" width="50" height="84.167" fill="#fff"><use xlink:href="#a"/></mask><path id="b" d="M4.167 4.167h41.667v66.667H4.167z"/><mask id="d" x="0" y="0" width="41.667" height="66.667" fill="#fff"><use xlink:href="#b"/></mask></defs><g fill="none" fill-rule="evenodd"><g stroke="#20A28C"><use mask="url(#c)" stroke-width="4" xlink:href="#a"/><use mask="url(#d)" stroke-width="4" xlink:href="#b"/><path d="M25 79.167c1.38 0 2.5-1.12 2.5-2.5s-1.12-2.5-2.5-2.5-2.5 1.12-2.5 2.5 1.12 2.5 2.5 2.5z" stroke-width="2"/></g><text font-family="Avenir-Black, Avenir" font-size="28" font-weight="700" fill="#20A28C"><tspan x="15.259" y="45.833">+</tspan></text><path d="M38.417 35c0-7.616-6.175-13.79-13.792-13.79S10.833 27.383 10.833 35c0 7.62 13.792 22.127 13.792 22.127S38.417 42.62 38.417 35z" stroke="#20A28C" stroke-width="2"/></g></svg>