<svg width="86" height="82" viewBox="0 0 86 82" xmlns="http://www.w3.org/2000/svg"><g stroke="#20A28C" stroke-width="2" fill="none" fill-rule="evenodd"><path d="M59.43 17.55C59.43 8.41 52.02 1 42.877 1c-9.14 0-16.55 7.41-16.55 16.55 0 9.142 7.41 16.552 16.55 16.552s16.55-7.41 16.55-16.55zM52.153 37.36v12.193M33.447 37.36v18.335M56.11 53.83c0-2.186-1.77-3.958-3.957-3.958-2.186 0-3.958 1.772-3.958 3.958s1.772 3.958 3.958 3.958 3.958-1.772 3.958-3.958zM29.398 65.663v-5.76c0-2.188 1.78-3.968 3.967-3.968 2.187 0 3.967 1.78 3.967 3.966v5.764"/><path d="M29.9 65.663h-.502v1.743h.502c.48 0 .87-.392.87-.872s-.39-.87-.87-.87zM36.83 67.406h.503v-1.743h-.502c-.478 0-.87.392-.87.872s.392.87.87.87zM53.505 53.83c0-.747-.605-1.352-1.352-1.352-.747 0-1.352.605-1.352 1.352 0 .747.606 1.352 1.353 1.352s1.352-.605 1.352-1.352z"/><path d="M82.84 62.476S66.096 46.03 60.543 40.18c-1.537-1.618-3.57-2.82-5.972-2.82h-6.718l-4.976 8.23-4.975-8.23h-6.44c-2.258 0-4.23 1.032-5.708 2.517-.01.01-.02.014-.028.023L2.917 62.71c-2.556 2.556-2.556 6.716 0 9.273 1.28 1.278 2.96 1.917 4.638 1.917 1.68 0 3.358-.64 4.637-1.917l11.528-11.53v20.324h38.594V60.554l11.25 11.195c1.28 1.278 2.96 1.917 4.638 1.917 1.68 0 3.36-.64 4.637-1.918 2.556-2.557 2.556-6.717 0-9.274z"/></g></svg>