<?xml version="1.0" encoding="UTF-8" standalone="no"?>
<svg width="250px" height="250px" viewBox="0 0 250 250" version="1.1" xmlns="http://www.w3.org/2000/svg" xmlns:xlink="http://www.w3.org/1999/xlink">
    <!-- Generator: sketchtool 3.6.1 (26313) - http://www.bohemiancoding.com/sketch -->
    <title>5E895689-227C-4011-8484-20211459ACD3</title>
    <desc>Created with sketchtool.</desc>
    <defs></defs>
    <g id="Page-1" stroke="none" stroke-width="1" fill="none" fill-rule="evenodd">
        <g id="indication" transform="translate(-220.000000, -288.000000)">
            <g id="icon_01" transform="translate(220.000000, 288.000000)">
                <path d="M233.161419,62.7549842 L187.245016,16.8385806 L125,0 L62.2450158,16.8385806 L16.3286121,62.7549842 L0,125 L16.8385806,187.245016 L62.7549842,233.161419 L125,250 L187.245016,233.161419 L233.161419,187.245016 L250,125 L233.161419,62.7549842 Z" id="Path" fill="#373232"></path>
                <g id="icon" transform="translate(50.000000, 54.000000)" stroke="#FFFFFF" stroke-width="2">
                    <path d="M55.5009028,118.455669 L88.1397917,114.991414" id="Stroke-1"></path>
                    <path d="M55.5009028,126.769879 L88.1397917,123.305624" id="Stroke-2"></path>
                    <path d="M55.5009028,135.084089 L88.1397917,131.619835" id="Stroke-3"></path>
                    <path d="M68.3142361,142.038302 L77.0434028,141.11196" id="Stroke-4"></path>
                    <path d="M97.5031944,33.2242763 L118.556667,10.8188658 L122.815694,23.1426037 L149.945556,0.324947043 L123.667778,38.8654678 L119.408056,25.6922948 L108.174722,38.3007944" id="Stroke-6"></path>
                    <path d="M53.1557639,94.2858442 L32.0286806,116.769547 L27.7696528,104.446502 L0.639791667,127.264158 L26.9175694,88.7229448 L31.1765972,101.896811 L41.0279861,90.8396041" id="Stroke-7"></path>
                    <path d="M56.0217361,63.893665 C56.0217361,61.0238769 58.3536806,58.6972838 61.2300694,58.6972838 C64.1064583,58.6972838 66.4384028,61.0238769 66.4384028,63.893665" id="Stroke-8"></path>
                    <path d="M66.4384028,63.893665 C66.4384028,61.0238769 68.7703472,58.6972838 71.6467361,58.6972838 C74.523125,58.6972838 76.8550694,61.0238769 76.8550694,63.893665" id="Stroke-10"></path>
                    <path d="M76.8550694,63.893665 C76.8550694,61.0238769 79.1870139,58.6972838 82.0634028,58.6972838 C84.9397917,58.6972838 87.2717361,61.0238769 87.2717361,63.893665" id="Stroke-12"></path>
                    <path d="M56.1953472,68.5704082 L63.8342361,117.416392" id="Stroke-14"></path>
                    <path d="M86.7508333,68.5704082 L79.3390278,115.966256" id="Stroke-16"></path>
                    <path d="M105.286458,33.5068901 C111.124653,40.8254735 114.612847,50.094432 114.612847,60.1726403 C114.612847,72.9806809 108.794097,84.6836244 99.859375,92.5287745 C93.6045139,98.7381037 87.4454861,103.732865 87.4454861,114.818479 L87.4454861,115.338117" id="Stroke-18"></path>
                    <path d="M45.4986806,94.4837917 C45.1396528,94.1297449 44.7750694,93.7722339 44.405625,93.4098729 C34.8209028,85.5584872 28.8167361,73.4786328 28.8167361,60.1405613 C28.8167361,36.4970265 48.0202083,17.3410865 71.718125,17.3410865 C83.086875,17.3410865 93.4195139,21.7573177 101.093819,28.9622736" id="Stroke-20"></path>
                    <path d="M55.5009028,118.802094 L55.5009028,114.644989 C55.5009028,107.332641 53.0821528,102.811789 49.4849306,98.6532988" id="Stroke-22"></path>
                </g>
            </g>
        </g>
    </g>
</svg>