<?xml version="1.0" encoding="utf-8"?>
<!-- Generator: Adobe Illustrator 19.2.1, SVG Export Plug-In . SVG Version: 6.00 Build 0)  -->
<svg version="1.1" id="Layer_1" xmlns="http://www.w3.org/2000/svg" xmlns:xlink="http://www.w3.org/1999/xlink" x="0px" y="0px"
	 viewBox="0 0 227 131" style="enable-background:new 0 0 227 131;" xml:space="preserve">
<style type="text/css">
	.st0{filter:url(#Adobe_OpacityMaskFilter);}
	.st1{fill:#FFFFFF;}
	.st2{mask:url(#mask-2);fill:#FFB533;}
	.st3{fill:none;stroke:#373232;stroke-width:2;}
	.st4{filter:url(#Adobe_OpacityMaskFilter_1_);}
	.st5{mask:url(#mask-4);fill:#FFB533;}
	.st6{filter:url(#Adobe_OpacityMaskFilter_2_);}
	.st7{mask:url(#mask-6);fill:#FFB533;}
	.st8{filter:url(#Adobe_OpacityMaskFilter_3_);}
	.st9{mask:url(#mask-8);fill:#FFB533;}
	.st10{filter:url(#Adobe_OpacityMaskFilter_4_);}
	.st11{mask:url(#mask-10);fill:#FFB533;}
	.st12{filter:url(#Adobe_OpacityMaskFilter_5_);}
	.st13{mask:url(#mask-12);fill:#FFB533;}
	.st14{filter:url(#Adobe_OpacityMaskFilter_6_);}
	.st15{mask:url(#mask-14);fill:#FFB533;}
	.st16{filter:url(#Adobe_OpacityMaskFilter_7_);}
	.st17{mask:url(#mask-16);fill:#FFB533;}
	.st18{filter:url(#Adobe_OpacityMaskFilter_8_);}
	.st19{mask:url(#mask-18);fill:#FFB533;}
	.st20{filter:url(#Adobe_OpacityMaskFilter_9_);}
	.st21{mask:url(#mask-20);fill:#FFB533;}
	.st22{filter:url(#Adobe_OpacityMaskFilter_10_);}
	.st23{mask:url(#mask-22);fill:#FFB533;}
	.st24{filter:url(#Adobe_OpacityMaskFilter_11_);}
	.st25{mask:url(#mask-24);fill:#FFB533;}
	.st26{filter:url(#Adobe_OpacityMaskFilter_12_);}
	.st27{mask:url(#mask-26);fill:#FFB533;}
	.st28{filter:url(#Adobe_OpacityMaskFilter_13_);}
	.st29{mask:url(#mask-28);fill:#FFB533;}
	.st30{filter:url(#Adobe_OpacityMaskFilter_14_);}
	.st31{mask:url(#mask-30);fill:#FFB533;}
	.st32{filter:url(#Adobe_OpacityMaskFilter_15_);}
	.st33{mask:url(#mask-32);fill:#FFB533;}
	.st34{filter:url(#Adobe_OpacityMaskFilter_16_);}
	.st35{mask:url(#mask-34);fill:#FFB533;}
	.st36{filter:url(#Adobe_OpacityMaskFilter_17_);}
	.st37{mask:url(#mask-36);fill:#FFB533;}
</style>
<title>ic_people</title>
<desc>Created with Sketch.</desc>
<g id="Page-1">
	<g id="investment" transform="translate(-94.000000, -184.000000)">
		<g id="ic_people" transform="translate(96.000000, 184.000000)">
			<g id="Group-3" transform="translate(23.000000, 0.069000)">
				<g id="Clip-2">
				</g>
				<defs>
					<filter id="Adobe_OpacityMaskFilter" filterUnits="userSpaceOnUse" x="-4.3" y="-1.1" width="60" height="68.1">
						<feColorMatrix  type="matrix" values="1 0 0 0 0  0 1 0 0 0  0 0 1 0 0  0 0 0 1 0"/>
					</filter>
				</defs>
				<mask maskUnits="userSpaceOnUse" x="-4.3" y="-1.1" width="60" height="68.1" id="mask-2">
					<g class="st0">
						<path id="path-1" class="st1" d="M2.6,27.1c0,0.5,0,1,0,1.5l0-0.1c0,0-2.6,2.2-1.6,5.7c1,3.5,2,6.6,3.5,7.4l0,0
							C7.9,53.8,15.7,62,25.7,62c10,0,17.9-8.2,21.3-20.5l0,0c1.5-0.7,2.5-3.9,3.5-7.4c1-3.5-1.6-5.7-1.6-5.7l0,0.1c0-0.5,0-1,0-1.5
							c0-12.8-10.4-23.2-23.2-23.2C12.9,3.9,2.6,14.3,2.6,27.1L2.6,27.1z"/>
					</g>
				</mask>
				<polygon id="Fill-1" class="st2" points="-4.3,67 55.7,67 55.7,-1.1 -4.3,-1.1 				"/>
			</g>
			<path id="Stroke-4" class="st3" d="M71.9,28.5l0,0.1c0-0.5,0-1,0-1.5C71.9,14.4,61.5,4,48.7,4S25.6,14.4,25.6,27.2
				c0,0.5,0,1,0,1.5l0-0.1c0,0-2.6,2.2-1.6,5.7c1,3.5,2,6.6,3.5,7.4l0,0c3.4,12.2,11.2,20.5,21.3,20.5S66.6,53.8,70,41.6l0,0
				c1.5-0.7,2.5-3.9,3.5-7.4C74.5,30.8,71.9,28.5,71.9,28.5L71.9,28.5z"/>
			<g id="Group-8" transform="translate(25.000000, 0.069000)">
				<g id="Clip-7">
				</g>
				<defs>
					<filter id="Adobe_OpacityMaskFilter_1_" filterUnits="userSpaceOnUse" x="-4.4" y="-1.1" width="56.3" height="34.5">
						<feColorMatrix  type="matrix" values="1 0 0 0 0  0 1 0 0 0  0 0 1 0 0  0 0 0 1 0"/>
					</filter>
				</defs>
				<mask maskUnits="userSpaceOnUse" x="-4.4" y="-1.1" width="56.3" height="34.5" id="mask-4">
					<g class="st4">
						<path id="path-3" class="st1" d="M0.6,27.1c0,0.5,0,0.9,0,1.4c0.2-0.1,3.1-1,3.8-3.2c1-3.2,4.1-11.3,9.1-10.2
							c4.1,0.9,6.1,3.3,10.3,3.3c4.1,0,6.1-2.4,10.3-3.3c5-1.1,8.1,7,9.1,10.2c0.7,2.2,3.6,3.2,3.8,3.2c0-0.5,0-0.9,0-1.4
							c0-12.8-10.4-23.2-23.2-23.2C10.9,3.9,0.6,14.3,0.6,27.1L0.6,27.1z"/>
					</g>
				</mask>
				<polygon id="Fill-6" class="st5" points="-4.4,33.4 51.9,33.4 51.9,-1.1 -4.4,-1.1 				"/>
			</g>
			<path id="Stroke-9" class="st3" d="M29.4,25.3c1-3.2,4.1-11.3,9.1-10.2c4.1,0.9,6.1,3.3,10.3,3.3S54.9,16,59,15.1
				c5-1.1,8.1,7,9.1,10.2c0.7,2.2,3.6,3.2,3.8,3.2c0-0.5,0-0.9,0-1.4C71.9,14.4,61.5,4,48.7,4S25.6,14.4,25.6,27.2
				c0,0.5,0,0.9,0,1.4C25.8,28.5,28.7,27.5,29.4,25.3L29.4,25.3z"/>
			<g id="Group-13" transform="translate(45.000000, 41.069000)">
				<g id="Clip-12">
				</g>
				<defs>
					<filter id="Adobe_OpacityMaskFilter_2_" filterUnits="userSpaceOnUse" x="-4" y="-1.3" width="15.8" height="10.9">
						<feColorMatrix  type="matrix" values="1 0 0 0 0  0 1 0 0 0  0 0 1 0 0  0 0 0 1 0"/>
					</filter>
				</defs>
				<mask maskUnits="userSpaceOnUse" x="-4" y="-1.3" width="15.8" height="10.9" id="mask-6">
					<g class="st6">
						<path id="path-5" class="st1" d="M1,3.9c0,0.2,1.3,0.8,2.9,0.8s2.9-0.6,2.9-0.8c0-0.1-0.2-0.1-0.5-0.1c-0.5,0-1.4,0.1-2.4,0.1
							c-1,0-1.9-0.1-2.4-0.1C1.2,3.7,1,3.8,1,3.9L1,3.9z"/>
					</g>
				</mask>
				<polygon id="Fill-11" class="st7" points="-4,9.7 11.8,9.7 11.8,-1.3 -4,-1.3 				"/>
			</g>
			<path id="Stroke-14" class="st3" d="M51.8,44.9c0,0.2-1.3,0.8-2.9,0.8c-1.6,0-2.9-0.6-2.9-0.8s1.3,0,2.9,0
				C50.5,44.9,51.8,44.7,51.8,44.9L51.8,44.9z"/>
			<g id="Group-18" transform="translate(36.000000, 67.069000)">
				<g id="Clip-17">
				</g>
				<defs>
					<filter id="Adobe_OpacityMaskFilter_3_" filterUnits="userSpaceOnUse" x="-4.7" y="-1.7" width="35.2" height="28.4">
						<feColorMatrix  type="matrix" values="1 0 0 0 0  0 1 0 0 0  0 0 1 0 0  0 0 0 1 0"/>
					</filter>
				</defs>
				<mask maskUnits="userSpaceOnUse" x="-4.7" y="-1.7" width="35.2" height="28.4" id="mask-8">
					<g class="st8">
						<path id="path-7" class="st1" d="M22.5,8h-0.1c-0.1,3.4-4.4,6.5-9.7,6.5S3.1,11.4,3,8h0V3.3C2.1,3.3,1.2,3.4,0.4,3.5v4.4v3.4
							v0.2H0.3c0,0,0.1,0.2,0.1,0.2v10l7.1-4.4c1.6,0.5,3.3,0.8,5.2,0.8c1.8,0,3.9-0.3,5.6-0.7l7.2,4.3V11.6v-0.4V3.5
							c-1-0.1-2-0.2-3-0.2V8L22.5,8z"/>
					</g>
				</mask>
				<polygon id="Fill-16" class="st9" points="-4.7,26.7 30.5,26.7 30.5,-1.7 -4.7,-1.7 				"/>
			</g>
			<path id="Stroke-19" class="st3" d="M58.5,70.3v4.8h-0.1c-0.1,3.4-4.4,6.5-9.7,6.5c-5.3,0-9.6-3.1-9.7-6.5l0,0v-4.8
				c-0.9,0.1-1.7,0.1-2.5,0.2V75v3.4v0.2h-0.1c0,0,0.1,0.2,0.1,0.3v10l7.1-4.4c1.6,0.5,3.3,0.8,5.2,0.8c1.8,0,3.9-0.3,5.6-0.7
				l7.2,4.3V78.7v-0.4v-7.7C60.4,70.5,59.5,70.4,58.5,70.3L58.5,70.3z"/>
			<g id="Group-23" transform="translate(38.000000, 56.069000)">
				<g id="Clip-22">
				</g>
				<defs>
					<filter id="Adobe_OpacityMaskFilter_4_" filterUnits="userSpaceOnUse" x="-4" y="-1.9" width="29.5" height="32.5">
						<feColorMatrix  type="matrix" values="1 0 0 0 0  0 1 0 0 0  0 0 1 0 0  0 0 0 1 0"/>
					</filter>
				</defs>
				<mask maskUnits="userSpaceOnUse" x="-4" y="-1.9" width="29.5" height="32.5" id="mask-10">
					<g class="st10">
						<path id="path-9" class="st1" d="M10.7,6C7.2,6,3.9,5,1,3.1v16h0c0.1,3.4,4.4,6.5,9.7,6.5s9.6-3.1,9.7-6.5h0.1v-16
							C17.6,5,14.3,6,10.7,6L10.7,6z"/>
					</g>
				</mask>
				<polygon id="Fill-21" class="st11" points="-4,30.5 25.5,30.5 25.5,-1.9 -4,-1.9 				"/>
			</g>
			<path id="Stroke-24" class="st3" d="M48.7,62.1c-3.6,0-6.9-1-9.8-2.9v16h0c0.1,3.4,4.4,6.5,9.7,6.5s9.6-3.1,9.7-6.5h0.1v-16
				C55.6,61,52.3,62.1,48.7,62.1L48.7,62.1z"/>
			<g id="Group-28" transform="translate(0.000000, 67.069000)">
				<g id="Clip-27">
				</g>
				<defs>
					<filter id="Adobe_OpacityMaskFilter_5_" filterUnits="userSpaceOnUse" x="-5" y="-1.4" width="107.2" height="57.4">
						<feColorMatrix  type="matrix" values="1 0 0 0 0  0 1 0 0 0  0 0 1 0 0  0 0 0 1 0"/>
					</filter>
				</defs>
				<mask maskUnits="userSpaceOnUse" x="-5" y="-1.4" width="107.2" height="57.4" id="mask-12">
					<g class="st12">
						<path id="path-11" class="st1" d="M9.3,13.2c-7,7.1-9.2,29.7-9.3,37.7h48.7h48.5c-0.1-8.1-2.3-30.7-9.3-37.8
							c-5.4-5.4-15.5-8.4-26.5-9.6v7.6v0.4v10.1l-7.2-4.3c-1.7,0.5-3.8,0.7-5.6,0.7c-1.9,0-3.6-0.3-5.2-0.8l-7.1,4.4v-10
							c0,0-0.1-0.2-0.1-0.2h0.1v-0.2V7.9V3.6C25.2,4.7,14.8,7.7,9.3,13.2L9.3,13.2z"/>
					</g>
				</mask>
				<polygon id="Fill-26" class="st13" points="-5,55.9 102.2,55.9 102.2,-1.4 -5,-1.4 				"/>
			</g>
			<path id="Stroke-29" class="st3" d="M87.9,80.3c-5.4-5.4-15.5-8.4-26.5-9.6v7.6v0.4v10.1l-7.2-4.3c-1.7,0.5-3.8,0.7-5.6,0.7
				c-1.9,0-3.6-0.3-5.2-0.8l-7.1,4.4v-10c0,0-0.1-0.2-0.1-0.2h0.1v-0.2V75v-4.3c-11.3,1.2-21.6,4.1-27.1,9.7
				c-7,7.1-9.2,29.7-9.3,37.7h48.7h48.5C97.1,109.9,94.9,87.4,87.9,80.3L87.9,80.3z"/>
			<g id="Group-33" transform="translate(172.000000, 42.069000)">
				<g id="Clip-32">
				</g>
				<defs>
					<filter id="Adobe_OpacityMaskFilter_6_" filterUnits="userSpaceOnUse" x="-4.9" y="-1.8" width="15.8" height="10.9">
						<feColorMatrix  type="matrix" values="1 0 0 0 0  0 1 0 0 0  0 0 1 0 0  0 0 0 1 0"/>
					</filter>
				</defs>
				<mask maskUnits="userSpaceOnUse" x="-4.9" y="-1.8" width="15.8" height="10.9" id="mask-14">
					<g class="st14">
						<path id="path-13" class="st1" d="M3,3.2c-1.6,0-2.9-0.2-2.9,0S1.4,4.1,3,4.1s2.9-0.6,2.9-0.8c0-0.1-0.2-0.1-0.5-0.1
							C4.9,3.2,4,3.2,3,3.2L3,3.2z"/>
					</g>
				</mask>
				<polygon id="Fill-31" class="st15" points="-4.9,9.1 10.9,9.1 10.9,-1.8 -4.9,-1.8 				"/>
			</g>
			<path id="Stroke-34" class="st3" d="M177.9,45.4c0,0.2-1.3,0.8-2.9,0.8c-1.6,0-2.9-0.6-2.9-0.8s1.3,0,2.9,0
				C176.6,45.3,177.9,45.1,177.9,45.4L177.9,45.4z"/>
			<g id="Group-38" transform="translate(151.000000, 1.069000)">
				<g id="Clip-37">
				</g>
				<defs>
					<filter id="Adobe_OpacityMaskFilter_7_" filterUnits="userSpaceOnUse" x="-4.8" y="-1.6" width="56.8" height="34.5">
						<feColorMatrix  type="matrix" values="1 0 0 0 0  0 1 0 0 0  0 0 1 0 0  0 0 0 1 0"/>
					</filter>
				</defs>
				<mask maskUnits="userSpaceOnUse" x="-4.8" y="-1.6" width="56.8" height="34.5" id="mask-16">
					<g class="st16">
						<path id="path-15" class="st1" d="M23.6,3.4c0,0-13.2-0.3-22,2.6c0,0-2.4,10.5-0.9,21.9c0.2-0.1,3.1-1,3.8-3.2
							c1-3.2,4.1-11.3,9.1-10.2c4.1,0.9,6.1,3.3,10.3,3.3s6.1-2.4,10.3-3.3c5-1.1,8.1,7,9.1,10.2c0.5,1.6,2.2,2.6,3.1,3l0.1,0.3
							c0-0.1,0-0.1,0-0.2c0.3,0.1,0.5,0.2,0.5,0.2c0-0.5,0-0.9,0-1.4c0-0.9-0.1-1.9-0.2-2.8C47.4,14,45.6,6,45.6,6
							c-7.3-2.4-17.7-2.6-21-2.6C24,3.4,23.6,3.4,23.6,3.4L23.6,3.4z"/>
					</g>
				</mask>
				<polygon id="Fill-36" class="st17" points="-4.8,32.9 52,32.9 52,-1.6 -4.8,-1.6 				"/>
			</g>
			<path id="Stroke-39" class="st3" d="M197.8,24.8c0.6-9.7-1.3-17.8-1.3-17.8c-8.8-2.9-22-2.6-22-2.6s-13.2-0.3-22,2.6
				c0,0-2.4,10.5-0.9,21.9c0.2-0.1,3.1-1,3.8-3.2c1-3.2,4.1-11.3,9.1-10.2c4.1,0.9,6.1,3.3,10.3,3.3c4.1,0,6.1-2.4,10.3-3.3
				c5-1.1,8.1,7,9.1,10.2c0.5,1.6,2.1,2.6,3.1,3l0.1,0.3c0-0.1,0-0.1,0-0.2c0.3,0.1,0.5,0.2,0.5,0.2c0-0.5,0-0.9,0-1.4
				C198,26.6,198,25.7,197.8,24.8L197.8,24.8z"/>
			<g id="Group-43" transform="translate(160.000000, 59.069000)">
				<g id="Clip-42">
				</g>
				<defs>
					<filter id="Adobe_OpacityMaskFilter_8_" filterUnits="userSpaceOnUse" x="-4.4" y="-1.8" width="38.5" height="29.7">
						<feColorMatrix  type="matrix" values="1 0 0 0 0  0 1 0 0 0  0 0 1 0 0  0 0 0 1 0"/>
					</filter>
				</defs>
				<mask maskUnits="userSpaceOnUse" x="-4.4" y="-1.8" width="38.5" height="29.7" id="mask-18">
					<g class="st18">
						<path id="path-17" class="st1" d="M14.9,8.8C9,8.8,3.8,6.5,0.6,3.3v13.2h0.1C0.8,19.9,7.1,23,14.8,23c7.7,0,14-3.1,14.1-6.5
							H29V3.2C25.9,6.5,20.8,8.8,14.9,8.8L14.9,8.8z"/>
					</g>
				</mask>
				<polygon id="Fill-41" class="st19" points="-4.4,28 34,28 34,-1.8 -4.4,-1.8 				"/>
			</g>
			<path id="Stroke-44" class="st3" d="M174.9,67.9c-5.8,0-11.1-2.3-14.3-5.5v13.2h0.1c0.1,3.4,6.4,6.5,14.1,6.5
				c7.7,0,14-3.1,14.1-6.5h0.1V62.3C185.9,65.6,180.8,67.9,174.9,67.9L174.9,67.9z"/>
			<g id="Group-48" transform="translate(153.000000, 40.069000)">
				<g id="Clip-47">
				</g>
				<defs>
					<filter id="Adobe_OpacityMaskFilter_9_" filterUnits="userSpaceOnUse" x="-4.1" y="-1.8" width="51.8" height="34.6">
						<feColorMatrix  type="matrix" values="1 0 0 0 0  0 1 0 0 0  0 0 1 0 0  0 0 0 1 0"/>
					</filter>
				</defs>
				<mask maskUnits="userSpaceOnUse" x="-4.1" y="-1.8" width="51.8" height="34.6" id="mask-20">
					<g class="st20">
						<path id="path-19" class="st1" d="M34.6,12.8c-0.8,0.5-1.7,0.1-2.1-0.7c-1.7-4.5-5.5-5.2-11-5.2c-5.4,0-9.2,0.7-10.9,5
							c-0.3,0.8-1.3,1.2-2.1,0.7C2.7,8.7,0.9,3.2,0.9,3.2c0,2.5,2.1,12.3,4.8,16.8c2.6,4.4,9,7.8,16.1,7.8c7.1,0,13.2-3.4,15.9-7.8
							c2.9-4.8,5-14.4,5-16.8C42.8,3.2,41,9,34.6,12.8L34.6,12.8z M17.4,15.7c-2.2-0.3-3.2-3-1.7-4.7c1.3-1.4,3.2-2.5,5.8-2.5
							c2.8,0,4.7,1.2,6,2.7c1.4,1.7,0.4,4.3-1.8,4.6c-1.2,0.2-2.5,0.2-3.9,0.2C20.3,16,18.8,15.9,17.4,15.7L17.4,15.7z"/>
					</g>
				</mask>
				<polygon id="Fill-46" class="st21" points="-4.1,32.8 47.8,32.8 47.8,-1.8 -4.1,-1.8 				"/>
			</g>
			<path id="Stroke-49" class="st3" d="M170.4,55.8c-2.2-0.3-3.2-3-1.7-4.7c1.3-1.4,3.2-2.5,5.8-2.5c2.8,0,4.7,1.2,6,2.7
				c1.4,1.7,0.4,4.3-1.8,4.6c-1.2,0.2-2.5,0.2-3.9,0.2C173.3,56.1,171.8,56,170.4,55.8L170.4,55.8z M187.6,52.9
				c-0.8,0.5-1.7,0.1-2.1-0.7c-1.7-4.5-5.5-5.2-11-5.2c-5.4,0-9.2,0.7-10.9,5c-0.3,0.8-1.3,1.2-2.1,0.7c-5.9-3.8-7.7-9.3-7.7-9.3
				c0,2.5,2.1,12.3,4.8,16.8c2.6,4.4,9,7.8,16.1,7.8s13.2-3.4,15.9-7.8c2.9-4.8,5-14.3,5-16.8C195.8,43.3,194,49.1,187.6,52.9
				L187.6,52.9z"/>
			<g id="Group-53" transform="translate(149.000000, 12.069000)">
				<g id="Clip-52">
				</g>
				<defs>
					<filter id="Adobe_OpacityMaskFilter_10_" filterUnits="userSpaceOnUse" x="-4.1" y="-1.7" width="60" height="47.7">
						<feColorMatrix  type="matrix" values="1 0 0 0 0  0 1 0 0 0  0 0 1 0 0  0 0 0 1 0"/>
					</filter>
				</defs>
				<mask maskUnits="userSpaceOnUse" x="-4.1" y="-1.7" width="60" height="47.7" id="mask-22">
					<g class="st22">
						<path id="path-21" class="st1" d="M36.1,3.4C32,4.4,30,6.7,25.9,6.7s-6.1-2.4-10.3-3.3c-5-1.1-8.1,7-9.1,10.2
							c-0.7,2.2-3.6,3.2-3.8,3.2c0,0,0,0.1,0,0.1l0-0.1c0,0-2.6,2.2-1.6,5.7c1,3.5,2,6.6,3.5,7.4l0,0c0.1,0.5,0.2,0.9,0.4,1.4
							c0-0.1,0-0.1,0-0.2c0,0,1.7,5.5,7.7,9.3c0.8,0.5,1.7,0.1,2.1-0.7c1.7-4.3,5.5-5,10.9-5c5.5,0,9.3,0.7,11,5.2
							c0.3,0.8,1.3,1.2,2.1,0.7c6.3-3.8,8.2-9.6,8.2-9.6c0,0,0,0.1,0,0.2c0.1-0.5,0.2-0.9,0.4-1.4l0,0c1.5-0.7,2.5-3.9,3.5-7.4
							c1-3.5-1.6-5.7-1.6-5.7l0,0.1c0-0.3,0-0.5,0-0.8c0,0.2,0,0.4,0,0.6c0,0-0.2-0.1-0.5-0.2c0,0.1,0,0.1,0,0.2l-0.1-0.3
							c-1-0.4-2.6-1.4-3.1-3c-0.9-3-3.7-10.3-8.2-10.3C36.8,3.3,36.4,3.4,36.1,3.4L36.1,3.4z"/>
					</g>
				</mask>
				<polygon id="Fill-51" class="st23" points="-4.1,46 55.9,46 55.9,-1.7 -4.1,-1.7 				"/>
			</g>
			<path id="Stroke-54" class="st3" d="M198,29l0,0.1c0-0.3,0-0.5,0-0.8C198,28.5,198,28.7,198,29c-0.1,0-0.3-0.1-0.5-0.2
				c0,0.1,0,0.1,0,0.2l-0.1-0.3c-0.9-0.4-2.6-1.4-3.1-3c-1-3.2-4.1-11.3-9.1-10.2c-4.1,0.9-6.1,3.3-10.3,3.3
				c-4.1,0-6.1-2.4-10.3-3.3c-5-1.1-8.1,7-9.1,10.2c-0.7,2.2-3.6,3.2-3.8,3.2l0,0c0,0,0,0.1,0,0.1l0-0.1c0,0-2.6,2.2-1.6,5.7
				c1,3.5,2,6.6,3.5,7.4l0,0c0.1,0.5,0.2,0.9,0.4,1.4c0-0.1,0-0.1,0-0.2c0,0,1.7,5.5,7.7,9.3c0.7,0.5,1.7,0.1,2.1-0.7
				c1.7-4.3,5.5-5,10.9-5c5.5,0,9.3,0.7,11,5.2c0.3,0.8,1.3,1.2,2.1,0.7c6.3-3.8,8.2-9.6,8.2-9.6c0,0,0,0.1,0,0.2
				c0.1-0.5,0.2-0.9,0.4-1.4l0,0c1.5-0.7,2.5-3.9,3.5-7.4C200.6,31.2,198,29,198,29L198,29z"/>
			<g id="Group-58" transform="translate(126.000000, 68.069000)">
				<g id="Clip-57">
				</g>
				<defs>
					<filter id="Adobe_OpacityMaskFilter_11_" filterUnits="userSpaceOnUse" x="-4.9" y="-1.8" width="107.2" height="57.1">
						<feColorMatrix  type="matrix" values="1 0 0 0 0  0 1 0 0 0  0 0 1 0 0  0 0 0 1 0"/>
					</filter>
				</defs>
				<mask maskUnits="userSpaceOnUse" x="-4.9" y="-1.8" width="107.2" height="57.1" id="mask-24">
					<g class="st24">
						<path id="path-23" class="st1" d="M9.5,12.6c-7,7.1-9.2,29.9-9.3,37.7h48.7h48.5c-0.1-7.8-2.3-30.6-9.3-37.7
							C83,7.4,73.5,4.5,63,3.2v4.3h-0.1c-0.1,3.4-6.4,6.5-14.1,6.5c-7.7,0-14-3.1-14.1-6.5h-0.1V3.2C24.1,4.5,14.6,7.4,9.5,12.6
							L9.5,12.6z"/>
					</g>
				</mask>
				<polygon id="Fill-56" class="st25" points="-4.9,55.3 102.3,55.3 102.3,-1.8 -4.9,-1.8 				"/>
			</g>
			<path id="Stroke-59" class="st3" d="M214.1,80.6c-5.1-5.2-14.6-8.1-25.1-9.4v4.3h-0.1c-0.1,3.4-6.4,6.5-14.1,6.5
				c-7.7,0-14-3.1-14.1-6.5h-0.1v-4.3c-10.5,1.3-20,4.2-25.1,9.4c-7,7.1-9.2,29.9-9.3,37.7h48.7h48.5
				C223.2,110.6,221,87.7,214.1,80.6L214.1,80.6z"/>
			<g id="Group-63" transform="translate(120.000000, 95.069000)">
				<g id="Clip-62">
				</g>
				<defs>
					<filter id="Adobe_OpacityMaskFilter_12_" filterUnits="userSpaceOnUse" x="-4" y="-1.8" width="10.8" height="10.8">
						<feColorMatrix  type="matrix" values="1 0 0 0 0  0 1 0 0 0  0 0 1 0 0  0 0 0 1 0"/>
					</filter>
				</defs>
				<mask maskUnits="userSpaceOnUse" x="-4" y="-1.8" width="10.8" height="10.8" id="mask-26">
					<g class="st26">
						<path id="path-25" class="st1" d="M1.8,4L1.8,4V3.9C1.6,3.6,1.3,3.4,1,3.2C1.3,3.5,1.6,3.7,1.8,4L1.8,4z"/>
					</g>
				</mask>
				<polygon id="Fill-61" class="st27" points="-4,9 6.8,9 6.8,-1.8 -4,-1.8 				"/>
			</g>
			<path id="Stroke-64" class="st3" d="M121.8,98.9v0.1v0c-0.2-0.3-0.5-0.5-0.8-0.8C121.3,98.5,121.6,98.7,121.8,98.9L121.8,98.9z"
				/>
			<g id="Group-68" transform="translate(107.000000, 53.069000)">
				<g id="Clip-67">
				</g>
				<defs>
					<filter id="Adobe_OpacityMaskFilter_13_" filterUnits="userSpaceOnUse" x="-4.9" y="-1.1" width="15.8" height="10.9">
						<feColorMatrix  type="matrix" values="1 0 0 0 0  0 1 0 0 0  0 0 1 0 0  0 0 0 1 0"/>
					</filter>
				</defs>
				<mask maskUnits="userSpaceOnUse" x="-4.9" y="-1.1" width="15.8" height="10.9" id="mask-28">
					<g class="st28">
						<path id="path-27" class="st1" d="M0.1,4c0,0.2,1.3,0.8,2.9,0.8C4.7,4.9,6,4.3,6,4c0-0.1-0.2-0.1-0.5-0.1C4.9,3.9,4,4,3.1,4
							c-1,0-1.9-0.1-2.4-0.1C0.3,3.9,0.1,3.9,0.1,4L0.1,4z"/>
					</g>
				</mask>
				<polygon id="Fill-66" class="st29" points="-4.9,9.9 11,9.9 11,-1.1 -4.9,-1.1 				"/>
			</g>
			<path id="Stroke-69" class="st3" d="M113,57.1c0,0.2-1.3,0.8-2.9,0.8s-2.9-0.6-2.9-0.8s1.3,0,2.9,0S113,56.9,113,57.1L113,57.1z"
				/>
			<g id="Group-73" transform="translate(61.000000, 79.069000)">
				<g id="Clip-72">
				</g>
				<defs>
					<filter id="Adobe_OpacityMaskFilter_14_" filterUnits="userSpaceOnUse" x="-4.8" y="-1.5" width="107.2" height="53.5">
						<feColorMatrix  type="matrix" values="1 0 0 0 0  0 1 0 0 0  0 0 1 0 0  0 0 0 1 0"/>
					</filter>
				</defs>
				<mask maskUnits="userSpaceOnUse" x="-4.8" y="-1.5" width="107.2" height="53.5" id="mask-30">
					<g class="st30">
						<path id="path-29" class="st1" d="M9.5,13.5c-7,7.1-9.2,25.9-9.3,33.5h48.7h48.5c-0.1-7.6-2.3-26.5-9.3-33.6
							c-5.8-5.9-17.3-8.9-29.4-9.9v1.3c0.7,0.6,4.6,4.7,3.6,16.5c-0.4-0.4-0.9-1-1.5-1.5V20v0l-0.5,2.8l-7.2,23.9h-8.7l-7.2-23.9
							L37.2,22l-0.3-2c-1,1-1.4,1.8-1.4,1.8C34.2,8.5,39.1,4.8,39.1,4.8h0V3.5C26.9,4.5,15.4,7.5,9.5,13.5L9.5,13.5z"/>
					</g>
				</mask>
				<polygon id="Fill-71" class="st31" points="-4.8,52 102.4,52 102.4,-1.5 -4.8,-1.5 				"/>
			</g>
			<path id="Stroke-74" class="st3" d="M149.1,92.5c-5.8-5.9-17.3-8.9-29.4-9.9v1.3c0.7,0.6,4.6,4.7,3.6,16.5
				c-0.4-0.4-0.9-1-1.5-1.5v0.1v0l-0.5,2.8l-7.2,23.9h-8.7l-7.2-23.9l-0.2-0.9l-0.3-2c-1,1-1.4,1.8-1.4,1.8
				c-1.3-13.3,3.7-17.1,3.7-17.1h0v-1.2c-12.2,1-23.8,4-29.6,9.9c-7,7.1-9.2,25.9-9.3,33.5h48.7h48.5
				C158.2,118.4,156.1,99.6,149.1,92.5L149.1,92.5z"/>
			<g id="Group-78" transform="translate(84.000000, 17.069000)">
				<g id="Clip-77">
				</g>
				<defs>
					<filter id="Adobe_OpacityMaskFilter_15_" filterUnits="userSpaceOnUse" x="-4.1" y="-1.6" width="60" height="63.7">
						<feColorMatrix  type="matrix" values="1 0 0 0 0  0 1 0 0 0  0 0 1 0 0  0 0 0 1 0"/>
					</filter>
				</defs>
				<mask maskUnits="userSpaceOnUse" x="-4.1" y="-1.6" width="60" height="63.7" id="mask-32">
					<g class="st32">
						<path id="path-31" class="st1" d="M12,16.9c-4.5,3.1-7.4,4.2-9.2,4.6c0,0.3,0,0.5,0,0.8c0,0.5,0,1,0,1.5l0-0.1
							c0,0-2.6,2.2-1.6,5.7s2,6.6,3.5,7.4l0,0C8,49,15.8,57.2,25.9,57.2S43.7,49,47.2,36.7l0,0c1.5-0.7,2.5-3.9,3.5-7.4
							c1-3.5-1.6-5.7-1.6-5.7l0,0.1c0-0.4,0-0.9,0-1.3C44.3,22.6,35.9,22,29,17.3c-6.1-4.2-8.4-9.9-9.3-13.8
							C18.9,7.6,17,13.4,12,16.9L12,16.9z"/>
					</g>
				</mask>
				<polygon id="Fill-76" class="st33" points="-4.1,62.2 55.9,62.2 55.9,-1.6 -4.1,-1.6 				"/>
			</g>
			<path id="Stroke-79" class="st3" d="M133,40.7l0,0.1c0-0.4,0-0.9,0-1.3c-4.7,0.1-13.2-0.5-20.1-5.2c-6.1-4.2-8.4-9.9-9.3-13.8
				c-0.7,4.2-2.6,10-7.7,13.5c-4.5,3.1-7.4,4.2-9.2,4.6c0,0.3,0,0.5,0,0.8c0,0.5,0,1,0,1.5l0-0.1c0,0-2.6,2.2-1.6,5.7
				c1,3.5,2,6.6,3.5,7.4l0,0C92,66,99.8,74.2,109.9,74.2s17.9-8.2,21.3-20.5l0,0c1.5-0.7,2.5-3.9,3.5-7.4
				C135.7,42.9,133,40.7,133,40.7L133,40.7z"/>
			<g id="Group-83" transform="translate(74.000000, 10.069000)">
				<g id="Clip-82">
				</g>
				<defs>
					<filter id="Adobe_OpacityMaskFilter_16_" filterUnits="userSpaceOnUse" x="-5" y="-1.3" width="82.1" height="79">
						<feColorMatrix  type="matrix" values="1 0 0 0 0  0 1 0 0 0  0 0 1 0 0  0 0 0 1 0"/>
					</filter>
				</defs>
				<mask maskUnits="userSpaceOnUse" x="-5" y="-1.3" width="82.1" height="79" id="mask-34">
					<g class="st34">
						<path id="path-33" class="st1" d="M36.1,3.7c0,0-15.1-0.9-22.9,13.6C5.4,31.9,0,68.1,0,68.1s11.5,3.3,26.1,4.5V61.2
							c-5.3-3.4-9.3-9.6-11.5-17.5l0,0c-1.5-0.7-2.5-3.9-3.5-7.4c-1-3.5,1.6-5.7,1.6-5.7l0,0.1c0-0.5,0-1,0-1.5c0-0.3,0-0.5,0-0.8
							c1.8-0.3,4.8-1.5,9.2-4.6c5-3.5,7-9.3,7.7-13.5c0.9,3.9,3.2,9.7,9.3,13.8c6.9,4.7,15.4,5.3,20.1,5.2c0,0.4,0,0.9,0,1.3l0-0.1
							c0,0,2.6,2.2,1.6,5.7c-1,3.5-2,6.6-3.5,7.4l0,0c-2.2,7.9-6.2,14.1-11.5,17.5v11.4c14.8-1.2,26.5-4.5,26.5-4.5
							S66.7,31.9,59,17.3C52.1,4.4,39.4,3.7,36.6,3.7C36.3,3.7,36.1,3.7,36.1,3.7L36.1,3.7z"/>
					</g>
				</mask>
				<polygon id="Fill-81" class="st35" points="-5,77.7 77.1,77.7 77.1,-1.3 -5,-1.3 				"/>
			</g>
			<path id="Stroke-84" class="st3" d="M100.1,71.3c-5.3-3.4-9.3-9.6-11.5-17.5l0,0c-1.5-0.7-2.5-3.9-3.5-7.4
				c-1-3.5,1.6-5.7,1.6-5.7l0,0.1c0-0.5,0-1,0-1.5c0-0.3,0-0.5,0-0.8c1.8-0.3,4.8-1.5,9.2-4.6c5-3.5,7-9.3,7.7-13.5
				c0.9,3.9,3.2,9.7,9.3,13.8c6.9,4.7,15.4,5.3,20.1,5.2c0,0.4,0,0.9,0,1.3l0-0.1c0,0,2.6,2.2,1.6,5.7c-1,3.5-2,6.6-3.5,7.4l0,0
				c-2.2,7.9-6.2,14.1-11.5,17.5v11.4c14.8-1.2,26.5-4.5,26.5-4.5S140.7,42,133,27.4c-7.8-14.6-22.9-13.6-22.9-13.6
				s-15.1-0.9-22.9,13.6C79.4,42,74,78.2,74,78.2s11.5,3.3,26.1,4.5V71.3L100.1,71.3z"/>
			<g id="Group-88" transform="translate(96.000000, 80.069000)">
				<g id="Clip-87">
				</g>
				<defs>
					<filter id="Adobe_OpacityMaskFilter_17_" filterUnits="userSpaceOnUse" x="-4.8" y="-1.2" width="37.2" height="52">
						<feColorMatrix  type="matrix" values="1 0 0 0 0  0 1 0 0 0  0 0 1 0 0  0 0 0 1 0"/>
					</filter>
				</defs>
				<mask maskUnits="userSpaceOnUse" x="-4.8" y="-1.2" width="37.2" height="52" id="mask-36">
					<g class="st36">
						<path id="path-35" class="st1" d="M4.1,3.8c0,0-4.9,3.8-3.7,17.1c0,0,0.5-0.8,1.4-1.8l0.3,2l0.2,0.9l7.2,23.9h8.7l7.2-23.9
							l0.5-2.8v0v-0.1c0.6,0.5,1.1,1,1.5,1.5c1-11.8-3-15.9-3.6-16.5v3.5h-0.1c-0.1,3.8-4.4,6.5-9.7,6.5s-9.6-2.7-9.7-6.5h0L4.1,3.8
							L4.1,3.8L4.1,3.8z"/>
					</g>
				</mask>
				<polygon id="Fill-86" class="st37" points="-4.8,50.8 32.4,50.8 32.4,-1.2 -4.8,-1.2 				"/>
			</g>
			<path id="Stroke-89" class="st3" d="M119.7,83.9v3.5h-0.1c-0.1,3.8-4.4,6.5-9.7,6.5s-9.6-2.7-9.7-6.5l0,0v-3.6h0
				c0,0-4.9,3.8-3.7,17.1c0,0,0.5-0.8,1.4-1.8l0.3,2l0.1,0.9l7.2,23.9h8.7l7.2-23.9l0.5-2.8v0v-0.1c0.6,0.5,1.1,1,1.5,1.5
				C124.3,88.6,120.3,84.5,119.7,83.9L119.7,83.9z"/>
		</g>
	</g>
</g>
</svg>
