<svg viewBox="0 0 227 125" xmlns="http://www.w3.org/2000/svg" xmlns:xlink="http://www.w3.org/1999/xlink">
  <defs>
    <path d="M2.576 24.084c0 .507.008 1.01.02 1.51l-.02-.14s-2.614 2.24-1.618 5.725c.996 3.485 2.01 6.62 3.494 7.355v-.007C7.863 50.778 15.68 59 25.727 59c10.05 0 17.864-8.222 21.278-20.472v.007c1.484-.734 2.498-3.87 3.493-7.356.995-3.486-1.618-5.727-1.618-5.727l-.02.14c.012-.5.02-1.002.02-1.51C48.882 11.298 38.515.932 25.728.932 12.942.93 2.576 11.298 2.576 24.085z" id="a"/>
    <path d="M.576 24.083c0 .458.008.912.02 1.365.19-.06 3.086-.992 3.78-3.23.98-3.164 4.054-11.325 9.088-10.208 4.137.918 6.12 3.298 10.264 3.298 4.144 0 6.128-2.38 10.266-3.298 5.033-1.117 8.106 7.044 9.087 10.207.696 2.24 3.593 3.17 3.783 3.23.01-.452.02-.906.02-1.364 0-12.786-10.368-23.15-23.155-23.15C10.942.932.576 11.296.576 24.082z" id="c"/>
    <path d="M.994.865c0 .243 1.303.828 2.91.828 1.607 0 2.91-.585 2.91-.828 0-.093-.193-.12-.523-.12-.524 0-1.397.072-2.386.072-.988 0-1.862-.073-2.388-.073-.33 0-.522.028-.522.12z" id="e"/>
    <path d="M22.502 5.047h-.127c-.098 3.398-4.403 6.474-9.704 6.474-5.3 0-9.606-3.075-9.704-6.473V.277C2.093.345 1.235.423.42.51V8.446H.304c.013 0 .114.224.114.25V18.7l7.056-4.414c1.6.516 3.347.804 5.213.804 1.772 0 3.864-.256 5.588-.724l7.197 4.334V.518C24.443.425 23.46.344 22.502.273v4.774z" id="g"/>
    <path d="M10.728 3C7.16 3 3.875 1.958.968.072v15.976H.965c.098 3.397 4.404 6.473 9.705 6.473 5.302 0 9.607-3.075 9.705-6.472h.127V.064C17.592 1.956 14.302 3 10.728 3z" id="i"/>
    <path d="M9.336 10.21C2.366 17.304.126 39.87 0 47.94h97.217c-.125-8.068-2.304-30.655-9.274-37.75C82.593 4.743 72.46 1.82 61.475.615V18.7l-7.197-4.334c-1.724.468-3.816.724-5.59.724-1.865 0-3.612-.288-5.212-.804L36.42 18.7V8.695c0-.026-.102-.25-.115-.25h.114V.553C25.164 1.72 14.786 4.66 9.335 10.21z" id="k"/>
    <path d="M3.036.25C1.43.25.126.055.126.297s1.303.828 2.91.828c1.607 0 2.91-.586 2.91-.828 0-.093-.194-.122-.525-.122-.525 0-1.397.073-2.384.073z" id="m"/>
    <path d="M23.588.364S10.352.078 1.598 2.958c0 0-2.396 10.466-.87 21.922.19-.06 3.087-.992 3.78-3.23.983-3.163 4.055-11.325 9.088-10.208 4.137.918 6.122 3.298 10.265 3.298 4.144 0 6.13-2.38 10.266-3.298 5.033-1.117 8.105 7.045 9.086 10.207.502 1.615 2.15 2.55 3.102 2.968l.135.262c.008-.065.015-.13.024-.194.28.117.476.18.52.194.012-.453.02-.907.02-1.364 0-.948-.06-1.882-.17-2.8.576-9.707-1.267-17.758-1.267-17.758C38.272.555 27.845.356 24.594.356c-.644 0-1.006.008-1.006.008z" id="o"/>
    <path d="M14.86 5.81C9.03 5.81 3.753 3.546.57.306V13.48h.076c.143 3.397 6.42 6.473 14.148 6.473 7.727 0 14.005-3.076 14.148-6.473h.083V.205C25.907 3.495 20.75 5.81 14.86 5.81z" id="q"/>
    <path d="M34.63 9.796c-.76.457-1.745.103-2.053-.73-1.665-4.502-5.452-5.203-10.99-5.203-5.433 0-9.182.675-10.893 4.956-.33.825-1.322 1.163-2.072.684C2.672 5.7.944.182.944.182c0 2.45 2.134 12.313 4.81 16.8 2.643 4.43 8.962 7.828 16.108 7.828 7.145 0 13.218-3.402 15.87-7.828 2.894-4.834 5.048-14.35 5.048-16.8 0 0-1.822 5.808-8.15 9.614zM17.435 12.71c-2.24-.336-3.206-3.006-1.692-4.693 1.3-1.448 3.165-2.51 5.844-2.51 2.792 0 4.7 1.155 6.006 2.697 1.428 1.687.368 4.292-1.823 4.58-1.22.16-2.52.245-3.908.245-1.586 0-3.06-.114-4.426-.32z" id="s"/>
    <path d="M36.126.442C31.99 1.36 30.004 3.74 25.86 3.74c-4.142 0-6.127-2.38-10.264-3.298C10.563-.674 7.49 7.487 6.51 10.65c-.695 2.238-3.594 3.17-3.783 3.23 0 .048 0 .098.002.146l-.022-.14S.094 16.125 1.09 19.61c.995 3.485 2.01 6.622 3.495 7.356v-.008c.128.467.248.928.36 1.384l-.002-.162s1.73 5.518 7.68 9.322c.75.48 1.74.14 2.07-.685 1.712-4.282 5.46-4.957 10.895-4.957 5.537 0 9.324.7 10.99 5.204.306.832 1.29 1.186 2.05.73 6.33-3.807 8.153-9.615 8.153-9.615l-.003.15c.113-.45.233-.908.36-1.372v.008c1.485-.734 2.5-3.87 3.494-7.356.998-3.486-1.616-5.727-1.616-5.727l-.02.14c.005-.253.006-.51.01-.766-.004.206-.004.414-.01.62-.043-.014-.24-.078-.52-.194-.01.065-.017.13-.025.194l-.136-.262c-.95-.418-2.6-1.353-3.102-2.968C44.292 7.687 41.538.338 37.057.337c-.303 0-.612.035-.93.105z" id="u"/>
    <path d="M9.468 9.576C2.498 16.67.258 39.51.133 47.268H97.35c-.125-7.757-2.304-30.604-9.275-37.7-5.12-5.21-14.617-8.1-25.05-9.388v4.3h-.083c-.143 3.397-6.42 6.473-14.148 6.473S34.79 7.877 34.646 4.48h-.077V.174C24.09 1.46 14.597 4.354 9.467 9.576z" id="w"/>
    <path d="M1.81 1V.856C1.554.632 1.282.404.993.177c.303.283.573.563.815.824z" id="y"/>
    <path d="M.15 1.04c0 .242 1.302.828 2.91.828 1.606 0 2.908-.586 2.908-.828 0-.094-.192-.122-.522-.122C4.92.918 4.048.99 3.06.99 2.07.99 1.197.92.67.92c-.328 0-.52.03-.52.122z" id="A"/>
    <path d="M9.49 10.466C2.52 17.56.28 36.356.156 44h97.217c-.125-7.644-2.303-26.475-9.274-33.57-5.83-5.936-17.337-8.896-29.44-9.887v1.294c.67.602 4.625 4.675 3.627 16.513-.388-.446-.88-.96-1.476-1.493V17l-.5 2.845-7.154 23.917h-8.66l-7.154-23.917-.15-.858L36.845 17c-.967 1.05-1.437 1.835-1.437 1.835-1.252-13.32 3.683-17.08 3.683-17.08h.032V.532c-12.216.985-23.77 3.967-29.63 9.933z" id="C"/>
    <path d="M11.978 13.925c-4.46 3.11-7.412 4.218-9.227 4.564-.008.255-.02.51-.02.768 0 .506.01 1.01.02 1.51l-.02-.14s-2.613 2.24-1.617 5.725c.996 3.486 2.01 6.622 3.494 7.357v-.008c3.413 12.25 11.228 20.472 21.277 20.472 10.05 0 17.864-8.222 21.277-20.472v.008c1.485-.735 2.5-3.87 3.495-7.357.995-3.486-1.618-5.726-1.618-5.726l-.02.14c.01-.43.015-.863.017-1.3-4.708.11-13.16-.476-20.066-5.19-6.134-4.188-8.44-9.944-9.304-13.848-.722 4.2-2.637 9.973-7.686 13.495z" id="E"/>
    <path d="M36.06.71S20.92-.23 13.164 14.345C5.407 28.916.002 65.112.002 65.112s11.502 3.325 26.12 4.518V58.246c-5.28-3.424-9.314-9.644-11.516-17.544v.008c-1.484-.735-2.497-3.872-3.493-7.357-.996-3.486 1.62-5.726 1.62-5.726l.018.142c-.01-.502-.018-1.006-.018-1.512 0-.258.01-.513.02-.77 1.814-.345 4.765-1.452 9.226-4.563 5.05-3.522 6.964-9.296 7.686-13.496.865 3.903 3.17 9.66 9.304 13.847 6.905 4.714 15.358 5.3 20.066 5.19-.002.437-.007.87-.018 1.302l.02-.143s2.614 2.24 1.62 5.726c-.998 3.485-2.01 6.622-3.496 7.357l.002-.008c-2.2 7.894-6.23 14.11-11.505 17.536v11.418c14.78-1.167 26.46-4.544 26.46-4.544S66.71 28.916 58.955 14.344C52.085 1.436 39.422.7 36.618.7c-.36 0-.558.01-.558.01z" id="G"/>
    <path d="M4.09.754S-.843 4.514.41 17.834c0 0 .47-.785 1.436-1.833l.348 1.987.15.858 7.155 23.917h8.66l7.154-23.917.5-2.844v-.143c.596.532 1.087 1.047 1.475 1.493C28.283 5.512 24.33 1.44 23.657.837v3.517h-.127c-.098 3.822-4.403 6.472-9.704 6.472-5.3 0-9.607-2.65-9.705-6.472h.002v-3.6h-.03z" id="I"/>
  </defs>
  <g fill="none" fill-rule="evenodd">
    <g transform="translate(25 .07)">
      <mask id="b" fill="#fff">
        <use xlink:href="#a"/>
      </mask>
      <path fill="#20A28C" mask="url(#b)" d="M-4.268 64h59.994V-4.07H-4.268"/>
    </g>
    <path d="M73.88 25.522l-.02.14c.013-.5.02-1.003.02-1.51C73.88 11.367 63.516 1 50.73 1S27.576 11.366 27.576 24.153c0 .506.008 1.01.02 1.51l-.02-.14s-2.614 2.24-1.618 5.725c.995 3.485 2.01 6.622 3.494 7.357v-.008c3.412 12.25 11.227 20.47 21.276 20.47 10.05 0 17.864-8.22 21.278-20.47v.008c1.484-.735 2.498-3.872 3.493-7.357.995-3.485-1.62-5.726-1.62-5.726z" stroke="#373232" stroke-width="2"/>
    <g transform="translate(27 .07)">
      <mask id="d" fill="#fff">
        <use xlink:href="#c"/>
      </mask>
      <path fill="#20A28C" mask="url(#d)" d="M-4.424 30.447h56.306V-4.07H-4.424"/>
    </g>
    <path d="M31.377 22.286c.98-3.162 4.054-11.324 9.087-10.207 4.137.917 6.122 3.298 10.265 3.298 4.142 0 6.127-2.38 10.264-3.3 5.033-1.116 8.106 7.046 9.087 10.208.696 2.24 3.593 3.172 3.783 3.23.01-.452.02-.905.02-1.363C73.882 11.366 63.515 1 50.728 1 37.94 1 27.575 11.367 27.575 24.154c0 .458.008.91.02 1.364.19-.06 3.086-.992 3.78-3.23z" stroke="#373232" stroke-width="2"/>
    <g transform="translate(47 41.07)">
      <mask id="f" fill="#fff">
        <use xlink:href="#e"/>
      </mask>
      <path fill="#20A28C" mask="url(#f)" d="M-4.006 6.694h15.82v-10.95h-15.82"/>
    </g>
    <path d="M53.814 41.935c0 .242-1.303.828-2.91.828-1.607 0-2.91-.586-2.91-.828s1.303-.05 2.91-.05c1.607 0 2.91-.192 2.91.05z" stroke="#373232" stroke-width="2"/>
    <g transform="translate(38 67.07)">
      <mask id="h" fill="#fff">
        <use xlink:href="#g"/>
      </mask>
      <path fill="#20A28C" mask="url(#h)" d="M-4.695 23.7h35.17V-4.728h-35.17"/>
    </g>
    <path d="M60.502 67.343v4.773h-.127c-.1 3.397-4.404 6.474-9.705 6.474-5.3 0-9.605-3.077-9.703-6.474v-4.77c-.875.07-1.733.145-2.548.234l-.002 4.373v3.56h-.114c.014 0 .114.224.114.25V85.77l7.06-4.412c1.597.516 3.346.803 5.21.803 1.773 0 3.866-.257 5.59-.725l7.197 4.334V67.587c-1.032-.093-2.014-.174-2.973-.245z" stroke="#373232" stroke-width="2"/>
    <g transform="translate(40 56.07)">
      <mask id="j" fill="#fff">
        <use xlink:href="#i"/>
      </mask>
      <path fill="#20A28C" mask="url(#j)" d="M-4.034 27.52h29.536V-4.936H-4.034"/>
    </g>
    <path d="M50.73 59.07c-3.57 0-6.855-1.042-9.763-2.928v15.975c.097 3.398 4.403 6.473 9.704 6.473 5.302 0 9.608-3.075 9.705-6.473h.128V56.134c-2.91 1.89-6.2 2.935-9.774 2.935z" stroke="#373232" stroke-width="2"/>
    <g transform="translate(2 67.07)">
      <mask id="l" fill="#fff">
        <use xlink:href="#k"/>
      </mask>
      <path fill="#20A28C" mask="url(#l)" d="M-5 52.94h107.217V-4.445H-5"/>
    </g>
    <path d="M89.943 77.26c-5.35-5.448-15.482-8.372-26.468-9.576V85.77l-7.197-4.335c-1.724.468-3.817.724-5.59.724-1.865 0-3.612-.29-5.212-.804L38.42 85.77V75.763c0-.026-.102-.25-.115-.25h.114v-7.892C27.164 68.79 16.786 71.73 11.335 77.28 4.366 84.373 2.124 106.94 2 115.01H99.216c-.124-8.07-2.302-30.656-9.273-37.75z" stroke="#373232" stroke-width="2"/>
    <g transform="translate(174 42.07)">
      <mask id="n" fill="#fff">
        <use xlink:href="#m"/>
      </mask>
      <path fill="#20A28C" mask="url(#n)" d="M-4.873 6.126h15.82v-10.95h-15.82"/>
    </g>
    <path d="M179.946 42.367c0 .242-1.303.828-2.91.828-1.607 0-2.91-.586-2.91-.828s1.303-.05 2.91-.05c1.607 0 2.91-.192 2.91.05z" stroke="#373232" stroke-width="2"/>
    <g transform="translate(153 1.07)">
      <mask id="p" fill="#fff">
        <use xlink:href="#o"/>
      </mask>
      <path fill="#20A28C" mask="url(#p)" d="M-4.78 29.88h56.794V-4.644H-4.78"/>
    </g>
    <path d="M199.845 21.786c.575-9.708-1.267-17.76-1.267-17.76-8.754-2.88-21.99-2.593-21.99-2.593s-13.236-.286-21.99 2.594c0 0-2.396 10.466-.87 21.922.19-.06 3.087-.993 3.78-3.232.983-3.162 4.055-11.324 9.088-10.207 4.138.92 6.122 3.3 10.265 3.3 4.145 0 6.13-2.38 10.266-3.3 5.033-1.116 8.106 7.046 9.087 10.208.502 1.617 2.15 2.552 3.1 2.97l.136.26.024-.192c.28.116.477.18.522.193.01-.454.018-.907.018-1.364 0-.948-.06-1.882-.17-2.8z" stroke="#373232" stroke-width="2"/>
    <g transform="translate(162 59.07)">
      <mask id="r" fill="#fff">
        <use xlink:href="#q"/>
      </mask>
      <path fill="#20A28C" mask="url(#r)" d="M-4.43 24.952h38.454V-4.796H-4.43"/>
    </g>
    <path d="M176.862 64.88c-5.83 0-11.11-2.265-14.292-5.505V72.55h.076c.144 3.397 6.42 6.472 14.148 6.472s14.005-3.075 14.148-6.473h.082V59.273c-3.116 3.29-8.272 5.605-14.162 5.605z" stroke="#373232" stroke-width="2"/>
    <g transform="translate(155 40.07)">
      <mask id="t" fill="#fff">
        <use xlink:href="#s"/>
      </mask>
      <path fill="#20A28C" mask="url(#t)" d="M-4.057 29.81H47.78V-4.82H-4.057"/>
    </g>
    <path d="M172.436 52.78c-2.24-.337-3.206-3.008-1.692-4.694 1.3-1.447 3.166-2.51 5.844-2.51 2.792 0 4.7 1.154 6.007 2.697 1.426 1.686.366 4.292-1.824 4.578-1.218.16-2.52.248-3.908.248-1.587 0-3.06-.112-4.426-.32v.002zm17.193-2.915c-.76.457-1.746.103-2.053-.73-1.665-4.502-5.452-5.203-10.99-5.203-5.433 0-9.182.674-10.893 4.956-.33.826-1.322 1.163-2.072.684-5.948-3.803-7.68-9.322-7.68-9.322 0 2.452 2.136 12.315 4.813 16.8 2.643 4.431 8.962 7.83 16.107 7.83s13.218-3.403 15.87-7.83c2.894-4.833 5.048-14.348 5.048-16.8 0 0-1.82 5.81-8.15 9.615z" stroke="#373232" stroke-width="2"/>
    <g transform="translate(151 12.07)">
      <mask id="v" fill="#fff">
        <use xlink:href="#u"/>
      </mask>
      <path fill="#20A28C" mask="url(#v)" d="M-4.136 42.998h59.994v-47.66H-4.136"/>
    </g>
    <path d="M200.014 25.954l-.02.142c.006-.255.006-.512.01-.768-.003.207-.004.415-.008.62-.045-.014-.24-.076-.522-.192-.01.064-.016.128-.025.192l-.136-.262c-.95-.416-2.6-1.352-3.1-2.968-.982-3.163-4.055-11.323-9.088-10.207-4.137.918-6.12 3.3-10.265 3.3-4.142 0-6.127-2.382-10.264-3.3-5.033-1.115-8.105 7.045-9.087 10.208-.695 2.238-3.593 3.172-3.783 3.23 0 .05 0 .1.002.148l-.02-.142s-2.615 2.24-1.62 5.726c.996 3.486 2.01 6.623 3.495 7.358v-.008c.13.466.25.926.362 1.383-.002-.056-.004-.113-.004-.162 0 0 1.73 5.52 7.68 9.322.75.48 1.74.142 2.07-.684 1.713-4.282 5.46-4.956 10.895-4.956 5.537 0 9.324.7 10.99 5.204.306.832 1.29 1.186 2.052.73 6.33-3.806 8.15-9.615 8.15-9.615 0 .047 0 .1-.003.15.113-.45.233-.907.362-1.37l-.002.008c1.485-.735 2.5-3.872 3.494-7.357.996-3.485-1.618-5.726-1.618-5.726z" stroke="#373232" stroke-width="2"/>
    <g transform="translate(128 68.07)">
      <mask id="x" fill="#fff">
        <use xlink:href="#w"/>
      </mask>
      <path fill="#20A28C" mask="url(#x)" d="M-4.868 52.268H102.35V-4.825H-4.87"/>
    </g>
    <path d="M216.075 77.638c-5.12-5.212-14.617-8.102-25.05-9.39v4.3h-.084c-.142 3.398-6.42 6.474-14.146 6.474-7.728 0-14.005-3.076-14.148-6.473h-.077v-4.307c-10.48 1.286-19.972 4.18-25.102 9.4-6.97 7.097-9.212 29.937-9.336 37.693H225.348c-.124-7.756-2.302-30.603-9.273-37.698z" stroke="#373232" stroke-width="2"/>
    <g transform="translate(122 95.07)">
      <mask id="z" fill="#fff">
        <use xlink:href="#y"/>
      </mask>
      <path fill="#20A28C" mask="url(#z)" d="M-4.006 6H6.81V-4.823H-4.007"/>
    </g>
    <path d="M123.81 95.927V96.07c-.243-.26-.513-.54-.816-.825.288.228.56.456.815.682z" stroke="#373232" stroke-width="2"/>
    <g transform="translate(109 53.07)">
      <mask id="B" fill="#fff">
        <use xlink:href="#A"/>
      </mask>
      <path fill="#20A28C" mask="url(#B)" d="M-4.85 6.868h15.82v-10.95H-4.85"/>
    </g>
    <path d="M114.97 54.11c0 .24-1.304.827-2.91.827-1.608 0-2.91-.586-2.91-.828 0-.243 1.302-.05 2.91-.05 1.606 0 2.91-.193 2.91.05z" stroke="#373232" stroke-width="2"/>
    <g transform="translate(63 79.07)">
      <mask id="D" fill="#fff">
        <use xlink:href="#C"/>
      </mask>
      <path fill="#20A28C" mask="url(#D)" d="M-4.845 49h107.217V-4.467H-4.845"/>
    </g>
    <path d="M151.098 89.5c-5.83-5.936-17.337-8.896-29.44-9.888v1.295c.67.602 4.625 4.674 3.627 16.512-.388-.447-.88-.962-1.476-1.493V96.07l-.5 2.844-7.154 23.917h-8.66l-7.154-23.916-.15-.858-.348-1.985c-.966 1.05-1.436 1.834-1.436 1.834-1.253-13.32 3.683-17.08 3.683-17.08h.032V79.6c-12.216.985-23.77 3.968-29.63 9.933-6.972 7.095-9.213 25.89-9.337 33.534H160.37c-.123-7.645-2.3-26.476-9.272-33.57z" stroke="#373232" stroke-width="2"/>
    <g transform="translate(86 17.07)">
      <mask id="F" fill="#fff">
        <use xlink:href="#E"/>
      </mask>
      <path fill="#20A28C" mask="url(#F)" d="M-4.113 59.174H55.88V-4.57H-4.112"/>
    </g>
    <path d="M135.036 37.696l-.02.14c.012-.43.016-.864.018-1.3-4.707.11-13.16-.476-20.065-5.19-6.136-4.188-8.442-9.944-9.306-13.848-.722 4.2-2.636 9.975-7.686 13.496-4.462 3.11-7.412 4.218-9.227 4.564-.007.256-.02.51-.02.77 0 .505.008 1.01.02 1.51l-.02-.142s-2.612 2.24-1.617 5.726c.996 3.485 2.01 6.622 3.495 7.357l-.002-.01c3.413 12.25 11.23 20.472 21.278 20.472 10.05 0 17.864-8.22 21.277-20.47v.007c1.486-.736 2.5-3.873 3.495-7.358.995-3.485-1.62-5.726-1.62-5.726z" stroke="#373232" stroke-width="2"/>
    <g transform="translate(76 10.07)">
      <mask id="H" fill="#fff">
        <use xlink:href="#G"/>
      </mask>
      <path fill="#20A28C" mask="url(#H)" d="M-4.998 74.657h82.115V-4.3H-4.998"/>
    </g>
    <path d="M102.122 68.315c-5.28-3.425-9.315-9.644-11.516-17.544v.008c-1.484-.734-2.497-3.87-3.493-7.356-.996-3.485 1.618-5.726 1.618-5.726l.02.14c-.01-.5-.02-1.003-.02-1.51 0-.258.012-.513.02-.768 1.815-.346 4.767-1.453 9.228-4.565 5.05-3.52 6.964-9.296 7.686-13.495.865 3.903 3.17 9.66 9.305 13.848 6.903 4.714 15.356 5.3 20.064 5.19-.002.436-.007.87-.018 1.3l.02-.14s2.615 2.24 1.62 5.726c-.997 3.485-2.01 6.622-3.496 7.356l.002-.007c-2.2 7.894-6.23 14.11-11.504 17.537v11.418c14.78-1.167 26.46-4.544 26.46-4.544s-5.407-36.195-13.163-50.767C127.198 9.84 112.06 10.78 112.06 10.78s-15.14-.94-22.896 13.633C81.407 38.985 76.002 75.18 76.002 75.18s11.502 3.326 26.12 4.518V68.315z" stroke="#373232" stroke-width="2"/>
    <g transform="translate(98 80.07)">
      <mask id="J" fill="#fff">
        <use xlink:href="#I"/>
      </mask>
      <path fill="#20A28C" mask="url(#J)" d="M-4.796 47.762h37.24V-4.246h-37.24"/>
    </g>
    <path d="M121.658 80.906v3.516h-.127c-.097 3.822-4.403 6.473-9.704 6.473-5.3 0-9.606-2.65-9.704-6.473v-3.6h-.03s-4.936 3.76-3.684 17.08c0 0 .47-.784 1.436-1.832l.35 1.986.15.858 7.154 23.917h8.66l7.153-23.916.5-2.844V95.927c.597.53 1.088 1.045 1.476 1.492.997-11.84-2.956-15.912-3.628-16.514z" stroke="#373232" stroke-width="2"/>
  </g>
</svg>
