<svg width="293" height="204" viewBox="0 0 293 204" xmlns="http://www.w3.org/2000/svg" xmlns:xlink="http://www.w3.org/1999/xlink"><defs><rect id="a" x="49.384" y="31.407" width="17" height="17" rx="4"/><mask id="i" x="0" y="0" width="17" height="17" fill="#fff"><use xlink:href="#a"/></mask><rect id="b" x="111.225" y="41.225" width="17" height="17" rx="4"/><mask id="j" x="0" y="0" width="17" height="17" fill="#fff"><use xlink:href="#b"/></mask><rect id="c" x="133.225" y="45.225" width="17" height="17" rx="4"/><mask id="k" x="0" y="0" width="17" height="17" fill="#fff"><use xlink:href="#c"/></mask><path id="d" d="M43.573 72.598h54v10h-54z"/><mask id="l" x="0" y="0" width="54" height="10" fill="#fff"><use xlink:href="#d"/></mask><path id="e" d="M33.573 131.598h34v10h-34z"/><mask id="m" x="0" y="0" width="34" height="10" fill="#fff"><use xlink:href="#e"/></mask><path id="f" d="M25.573 161.598h54v10h-54z"/><mask id="n" x="0" y="0" width="54" height="10" fill="#fff"><use xlink:href="#f"/></mask><path id="g" d="M21.573 189.598h44v10h-44z"/><mask id="o" x="0" y="0" width="44" height="10" fill="#fff"><use xlink:href="#g"/></mask><path id="h" d="M37.573 102.598h64v10h-64z"/><mask id="p" x="0" y="0" width="64" height="10" fill="#fff"><use xlink:href="#h"/></mask></defs><g transform="translate(-6)" fill="none" fill-rule="evenodd"><path d="M249.334 27.135L46.78.955c-1.648-.214-3.213.935-3.496 2.57L8.31 205.495h289.956l-48.932-178.36z" stroke="#373232" fill="#F53047"/><path d="M117.103 89.24c2.265.32 5.63.656 8.08 1.002L271.82 110.98m-157.44-3.114l163.44 23.114m-166.26-4.362l172.26 24.362m-175.437-5.377c59.812 8.46 179.437 25.377 179.437 25.377m-182.03-7.45l187.03 26.45m-189.608-6.815c63.203 8.94 189.608 26.815 189.608 26.815m-193.345-7.344L292.82 229.98M143.477 72.582l-20.622 134.563m43.622-130.563l-20.622 134.563m44.622-131.563l-20.622 134.563m44.622-130.563l-20.622 134.563m44.622-131.563l-20.622 134.563" stroke="#373232" opacity=".2"/><path stroke="#373232" d="M146.77 205.042l13.863-90.92 117.362 16.858L298.43 205z"/><path stroke="#373232" d="M177.726 155.352l110.963 16.463 6.05 19.69-119.367-17.456z"/><text transform="rotate(8 194.5 195)" font-family="SourceSansPro-Regular, Source Sans Pro" font-size="14" fill="#373232"><tspan x="172" y="200">Women</tspan></text><path d="M43.285 3.518c.282-1.63 1.85-2.777 3.495-2.564l202.554 26.18L266.4 89.19l.42 1.792L34.637 55.285l-.59 1.626 9.238-53.39z" stroke="#373232"/><path stroke="#373232" d="M35.132 55.435l83.694 13.28-4.438 30.666-84.784-13.57zM24.087 114.58l85.6 14.21-4.546 30.612-86.66-14.49zm-11.045 59.143l87.398 15.087-5.445 30.174-87.563-14.928z"/><path stroke="#373232" d="M29.61 85.007l84.685 13.764-4.53 30.62L24 115.34zM18.565 144.15l86.483 14.642-4.53 30.62-87.563-14.928z"/><ellipse stroke="#373232" transform="rotate(1 61.038 16.816)" cx="61.038" cy="16.816" rx="6" ry="6"/><ellipse stroke="#373232" transform="rotate(1 79 19.13)" cx="79" cy="19.13" rx="6" ry="6"/><ellipse stroke="#373232" transform="rotate(1 96.963 21.444)" cx="96.963" cy="21.444" rx="6" ry="6"/><use stroke="#373232" mask="url(#i)" stroke-width="2" transform="rotate(9 57.884 39.907)" xlink:href="#a"/><use stroke="#373232" mask="url(#j)" stroke-width="2" transform="rotate(9 119.725 49.725)" xlink:href="#b"/><use stroke="#373232" mask="url(#k)" stroke-width="2" transform="rotate(9 141.725 53.725)" xlink:href="#c"/><path d="M187.82 169.1c-.877.57-1.94.87-3.065.79-2.755-.192-4.832-2.58-4.64-5.335.193-2.755 2.583-4.832 5.337-4.64 2.755.193 4.832 2.582 4.64 5.337-.08 1.125-.524 2.137-1.21 2.927.077.04.148.093.21.163l3.183 3.663c.274.314.244.787-.07 1.06-.313.273-.79.235-1.062-.077l-3.184-3.663c-.066-.07-.11-.147-.14-.23zm-2.995-.206c2.203.154 4.115-1.508 4.27-3.712.153-2.203-1.51-4.115-3.712-4.27-2.204-.153-4.116 1.51-4.27 3.712-.154 2.204 1.508 4.115 3.712 4.27z" fill="#373232"/><use stroke="#373232" mask="url(#l)" stroke-width="2" transform="rotate(9 70.573 77.598)" xlink:href="#d"/><use stroke="#373232" mask="url(#m)" stroke-width="2" transform="rotate(9 50.573 136.598)" xlink:href="#e"/><use stroke="#373232" mask="url(#n)" stroke-width="2" transform="rotate(9 52.573 166.598)" xlink:href="#f"/><use stroke="#373232" mask="url(#o)" stroke-width="2" transform="rotate(9 43.573 194.598)" xlink:href="#g"/><use stroke="#373232" mask="url(#p)" stroke-width="2" transform="rotate(9 69.573 107.598)" xlink:href="#h"/></g></svg>