<svg width="293" height="245" viewBox="0 0 293 245" xmlns="http://www.w3.org/2000/svg"><g stroke="#373232" fill="none" fill-rule="evenodd"><path d="M54.89 236.974s2.383 9.438 9.605 6.31c7.22-3.13 9.06.573 11.51-21.436 2.452-22.008 3.84-67.51 13.668-79.33 9.826-11.817 22.056-21.597 46.313-33.202 24.258-11.605 35.907-17.9 35.907-17.9l-5.89-6.27-144.417 64.448 2.393 4.814 81.64-33.684s-20.36 7.357-28.74 33.237c-8.38 25.88-22 83.02-22 83.02M368.2 79.27s6.088 7.597-.764 11.467c-6.852 3.868-5.01 7.574-24.04-3.75-19.03-11.322-56.158-37.664-71.513-36.956-15.354.71-30.53 4.57-54.42 16.91-23.886 12.35-35.938 17.84-35.938 17.84l-1.447-8.48L318.6 0l2.396 4.813-76.12 44.794s18.154-11.803 43.848-2.87C314.417 55.664 368.2 79.27 368.2 79.27" fill="#20A28C"/><path d="M11.197 145.705l51.478-25.607 58.144-28.925 39.95-1.398 1.19 50.687-4.3 21.08-44.64 26.36-40.73 13.79-21.81-7.627-23.44-26.685zM313.025-4.44l-50.003 24.873-56.478 28.097-24.288 30.56 39.155 31.802 19.07 9.46 46.63-19.038 34.48-23.616 6.66-21.792-7.38-34.675z"/><path d="M319.655 28.114c5.697 17.954 14.546 32.957-3.058 47.718-17.602 14.762-67.61 44.26-81.845 40.716-14.237-3.545-39.343-28.94-42.477-34.31-3.133-5.37-3.863-10.552 12.26-24.577C220.66 43.64 301.385 6.25 305.83 5.89c4.44-.36 8.128 4.273 13.827 22.228M156.354 100.11c2.394 5.737 7.5 41.08 1.74 54.573-5.76 13.492-59.454 35.58-81.845 40.714-22.4 5.134-29.02-10.974-39.91-26.348-10.89-15.38-12.35-21.12-9.39-24.44 2.96-3.32 81.48-45.16 102.39-49.55 20.91-4.4 24.6-.69 26.99 5.05m91.17-77.69c-56.66 28.18-61.876 45.56-76.32 53.67-1.22.68-2.35 1.3-3.445 1.9-1.135.51-2.313 1.03-3.593 1.59-15.18 6.63-32.19.3-88.85 28.49-56.654 28.19-73.884 40-73.884 40l5.16 10.37s6.295-3.14 12.21.39c5.91 3.52 18.415 39.81 43.93 45.59 25.516 5.78 85.89-27.02 99.045-39.57 13.16-12.56 2.874-49.94 6.224-59.93.094-.28.204-.55.32-.815 1.602-1.71 4.877-4.945 8.803-7.315 4.25-1.7 8.81-2.36 11.14-2.604.28.07.56.145.84.237 9.98 3.35 33.595 34.105 51.544 31.183 17.96-2.92 80.54-31.28 91.32-55.12 10.78-23.84-10.615-55.71-9.86-62.55.75-6.84 7.05-9.975 7.05-9.975l-5.16-10.37S304.17-5.79 247.507 22.4" fill="#20A28C"/></g></svg>