<svg width="150" height="431" viewBox="0 0 150 431" xmlns="http://www.w3.org/2000/svg" xmlns:xlink="http://www.w3.org/1999/xlink"><defs><rect id="a" width="26.109" height="26.109" rx="1"/><mask id="r" x="0" y="0" width="26.109" height="26.109" fill="#fff"><use xlink:href="#a"/></mask><path id="b" d="M-1 20h142v10H-1z"/><mask id="s" x="0" y="0" width="142" height="10" fill="#fff"><use xlink:href="#b"/></mask><path id="c" d="M16 72h142v10H16z"/><mask id="t" x="0" y="0" width="142" height="10" fill="#fff"><use xlink:href="#c"/></mask><path id="d" d="M57 201h152v10H57z"/><mask id="u" x="0" y="0" width="152" height="10" fill="#fff"><use xlink:href="#d"/></mask><path id="e" d="M82.123 278.658h152v10h-152z"/><mask id="v" x="0" y="0" width="152" height="10" fill="#fff"><use xlink:href="#e"/></mask><path id="f" d="M5 43h92v10H5z"/><mask id="w" x="0" y="0" width="92" height="10" fill="#fff"><use xlink:href="#f"/></mask><path id="g" d="M60.317 92.28h142v10h-142z"/><mask id="x" x="0" y="0" width="142" height="10" fill="#fff"><use xlink:href="#g"/></mask><path id="h" d="M63.317 222.28h142v10h-142z"/><mask id="y" x="0" y="0" width="142" height="10" fill="#fff"><use xlink:href="#h"/></mask><path id="i" d="M69.317 240.28h142v10h-142z"/><mask id="z" x="0" y="0" width="142" height="10" fill="#fff"><use xlink:href="#i"/></mask><path id="j" d="M75.628 258.377h142v10h-142z"/><mask id="A" x="0" y="0" width="142" height="10" fill="#fff"><use xlink:href="#j"/></mask><path id="k" d="M87.628 298.377h142v10h-142z"/><mask id="B" x="0" y="0" width="142" height="10" fill="#fff"><use xlink:href="#k"/></mask><rect id="l" width="26.109" height="26.109" rx="1"/><mask id="C" x="0" y="0" width="26.109" height="26.109" fill="#fff"><use xlink:href="#l"/></mask><path id="m" d="M69.72 125.28h142v10h-142z"/><mask id="D" x="0" y="0" width="142" height="10" fill="#fff"><use xlink:href="#m"/></mask><rect id="n" y="67" width="26.109" height="26.109" rx="1"/><mask id="E" x="0" y="0" width="26.109" height="26.109" fill="#fff"><use xlink:href="#n"/></mask><path id="o" d="M27.126 68.21L13.96 81.374 6.754 74.17 2.9 78.02l7.207 7.206 3.85 3.854L30.98 72.06z"/><mask id="F" x="-1" y="-1" width="30.078" height="22.873"><path fill="#fff" d="M1.9 67.21h30.08v22.87H1.9z"/><use xlink:href="#o"/></mask><path id="p" d="M26.78.49L13.61 13.656 6.406 6.45l-3.853 3.853L9.76 17.51h-.002l3.853 3.853 17.02-17.02z"/><mask id="G" x="-1" y="-1" width="30.078" height="22.873"><path fill="#fff" d="M1.553-.51H31.63v22.873H1.554z"/><use xlink:href="#p"/></mask><path id="q" d="M79.72 157.28h142v10h-142z"/><mask id="H" x="0" y="0" width="142" height="10" fill="#fff"><use xlink:href="#q"/></mask></defs><g fill="none" fill-rule="evenodd"><path d="M148.668 575L1.553 42.603c-.295-1.068.338-2.17 1.398-2.455L152.82-.215" stroke="#373232" fill="#F2843A"/><g transform="translate(45 44)"><use mask="url(#r)" xlink:href="#a" transform="rotate(-16 426.847 -36.503)" stroke="#020202" stroke-width="2"/><use stroke="#373232" mask="url(#s)" stroke-width="2" transform="rotate(-16 70 25)" xlink:href="#b"/><use stroke="#373232" mask="url(#t)" stroke-width="2" transform="rotate(-16 87 77)" xlink:href="#c"/><use stroke="#373232" mask="url(#u)" stroke-width="2" transform="rotate(-16 133 206)" xlink:href="#d"/><use stroke="#373232" mask="url(#v)" stroke-width="2" transform="rotate(-16 158.123 283.658)" xlink:href="#e"/><use stroke="#373232" mask="url(#w)" stroke-width="2" transform="rotate(-16 51 48)" xlink:href="#f"/><use stroke="#373232" mask="url(#x)" stroke-width="2" transform="rotate(-16 131.317 97.28)" xlink:href="#g"/><use stroke="#373232" mask="url(#y)" stroke-width="2" transform="rotate(-16 134.317 227.28)" xlink:href="#h"/><use stroke="#373232" mask="url(#z)" stroke-width="2" transform="rotate(-16 140.317 245.28)" xlink:href="#i"/><use stroke="#373232" mask="url(#A)" stroke-width="2" transform="rotate(-16 146.628 263.377)" xlink:href="#j"/><use stroke="#373232" mask="url(#B)" stroke-width="2" transform="rotate(-16 158.628 303.377)" xlink:href="#k"/><use mask="url(#C)" xlink:href="#l" transform="rotate(-16 548.952 -53.456)" stroke="#020202" stroke-width="2"/><use stroke="#373232" mask="url(#D)" stroke-width="2" transform="rotate(-16 140.72 130.28)" xlink:href="#m"/><g transform="rotate(-16 429.433 -39.533)"><use stroke="#020202" mask="url(#E)" stroke-width="2" xlink:href="#n"/><use fill="#F2843A" xlink:href="#o"/><use stroke="#373232" mask="url(#F)" stroke-width="2" xlink:href="#o"/><use fill="#F2843A" xlink:href="#p"/><use stroke="#373232" mask="url(#G)" stroke-width="2" xlink:href="#p"/></g><use stroke="#373232" mask="url(#H)" stroke-width="2" transform="rotate(-16 150.72 162.28)" xlink:href="#q"/></g></g></svg>