<?xml version="1.0" encoding="utf-8"?>
<!-- Generator: Adobe Illustrator 17.1.0, SVG Export Plug-In . SVG Version: 6.00 Build 0)  -->
<!DOCTYPE svg PUBLIC "-//W3C//DTD SVG 1.1//EN" "http://www.w3.org/Graphics/SVG/1.1/DTD/svg11.dtd">
<svg version="1.1" id="Layer_1" xmlns="http://www.w3.org/2000/svg" xmlns:xlink="http://www.w3.org/1999/xlink" x="0px" y="0px"
	 viewBox="0 0 195 50" enable-background="new 0 0 195 50" xml:space="preserve">
<g>
	<path fill="#FFFFFF" d="M64.3,27.8c0.4,0.6,0.9,1.1,1.6,1.4s1.3,0.4,2,0.4c0.4,0,0.8-0.1,1.2-0.2s0.8-0.3,1.1-0.5
		c0.3-0.2,0.6-0.5,0.8-0.9c0.2-0.4,0.3-0.8,0.3-1.2c0-0.7-0.2-1.2-0.6-1.5c-0.4-0.3-0.9-0.6-1.5-0.9c-0.6-0.2-1.3-0.5-2-0.7
		s-1.4-0.5-2-0.9c-0.6-0.4-1.1-0.9-1.5-1.5c-0.4-0.6-0.6-1.5-0.6-2.6c0-0.5,0.1-1,0.3-1.6c0.2-0.6,0.6-1.1,1-1.5
		c0.5-0.5,1.1-0.9,1.8-1.2c0.7-0.3,1.6-0.5,2.6-0.5c0.9,0,1.8,0.1,2.7,0.4c0.8,0.3,1.6,0.8,2.2,1.6l-1.9,1.7
		c-0.3-0.4-0.7-0.8-1.2-1.1c-0.5-0.3-1.1-0.4-1.8-0.4c-0.6,0-1.2,0.1-1.6,0.3c-0.4,0.2-0.8,0.4-1,0.6c-0.3,0.3-0.4,0.5-0.5,0.9
		s-0.2,0.6-0.2,0.8c0,0.7,0.2,1.3,0.6,1.7c0.4,0.4,0.9,0.7,1.5,0.9c0.6,0.2,1.3,0.5,2,0.6c0.7,0.2,1.4,0.5,2,0.8
		c0.6,0.3,1.1,0.8,1.5,1.4c0.4,0.6,0.6,1.4,0.6,2.4c0,0.8-0.2,1.6-0.5,2.2c-0.3,0.7-0.7,1.2-1.3,1.7c-0.5,0.4-1.2,0.8-1.9,1
		c-0.7,0.2-1.5,0.4-2.3,0.4c-1.1,0-2.1-0.2-3.1-0.6c-1-0.4-1.8-1-2.3-1.8L64.3,27.8z"/>
	<path fill="#FFFFFF" d="M82.7,21.8h-3.1V27c0,0.3,0,0.6,0,0.9c0,0.3,0.1,0.6,0.2,0.8s0.3,0.4,0.5,0.6c0.2,0.2,0.5,0.2,0.9,0.2
		c0.3,0,0.5,0,0.8-0.1c0.3,0,0.5-0.1,0.7-0.3v2c-0.3,0.1-0.6,0.2-1,0.3c-0.4,0.1-0.7,0.1-0.9,0.1c-0.8,0-1.5-0.1-1.9-0.3
		c-0.5-0.2-0.8-0.5-1-0.9s-0.3-0.8-0.4-1.2c0-0.5-0.1-0.9-0.1-1.4v-5.9h-2.5V20h2.5v-3.2h2.2V20h3.1V21.8z"/>
	<path fill="#FFFFFF" d="M85.5,21.4c0.6-0.6,1.3-1,2.1-1.3c0.8-0.3,1.6-0.4,2.4-0.4c0.8,0,1.5,0.1,2.1,0.3c0.6,0.2,1.1,0.5,1.5,0.8
		c0.4,0.4,0.7,0.8,0.9,1.2c0.2,0.5,0.3,0.9,0.3,1.4v5.8c0,0.4,0,0.8,0,1.1s0,0.7,0.1,1h-1.9c0-0.6-0.1-1.2-0.1-1.7h0
		c-0.5,0.7-1,1.3-1.7,1.6c-0.7,0.3-1.4,0.5-2.3,0.5c-0.5,0-1-0.1-1.5-0.2c-0.5-0.1-0.9-0.4-1.3-0.6c-0.4-0.3-0.6-0.6-0.9-1.1
		c-0.2-0.4-0.3-0.9-0.3-1.5c0-0.7,0.2-1.4,0.5-1.8s0.8-0.9,1.3-1.2c0.6-0.3,1.2-0.5,2-0.7c0.8-0.1,1.6-0.2,2.4-0.2h1.6v-0.5
		c0-0.3-0.1-0.6-0.2-0.9s-0.3-0.5-0.5-0.8c-0.2-0.2-0.5-0.4-0.8-0.6c-0.3-0.1-0.7-0.2-1.2-0.2c-0.4,0-0.8,0-1.1,0.1
		c-0.3,0.1-0.6,0.2-0.9,0.3c-0.3,0.1-0.5,0.3-0.7,0.4c-0.2,0.2-0.4,0.3-0.6,0.5L85.5,21.4z M91.6,25.9c-0.5,0-1,0-1.6,0.1
		c-0.5,0.1-1,0.2-1.5,0.3c-0.4,0.2-0.8,0.4-1.1,0.7c-0.3,0.3-0.4,0.7-0.4,1.1c0,0.7,0.2,1.1,0.7,1.4s1,0.4,1.8,0.4
		c0.6,0,1.1-0.1,1.5-0.3c0.4-0.2,0.8-0.5,1-0.8c0.3-0.3,0.4-0.7,0.6-1.1c0.1-0.4,0.2-0.8,0.2-1.2v-0.7H91.6z"/>
	<path fill="#FFFFFF" d="M97.9,20h2.2v1.8h0c0.1-0.3,0.3-0.6,0.6-0.8c0.2-0.2,0.5-0.5,0.8-0.6c0.3-0.2,0.6-0.3,1-0.4
		s0.7-0.2,1.1-0.2c0.4,0,0.7,0,1,0.1l-0.1,2.3c-0.2,0-0.4-0.1-0.5-0.1c-0.2,0-0.4,0-0.5,0c-1.1,0-1.9,0.3-2.4,0.9s-0.8,1.5-0.8,2.8
		v5.7h-2.2V20z"/>
	<path fill="#FFFFFF" d="M112.9,21.8h-3.1V27c0,0.3,0,0.6,0,0.9c0,0.3,0.1,0.6,0.2,0.8s0.3,0.4,0.5,0.6c0.2,0.2,0.5,0.2,0.9,0.2
		c0.3,0,0.5,0,0.8-0.1c0.3,0,0.5-0.1,0.7-0.3v2c-0.3,0.1-0.6,0.2-1,0.3c-0.4,0.1-0.7,0.1-0.9,0.1c-0.8,0-1.5-0.1-1.9-0.3
		c-0.5-0.2-0.8-0.5-1-0.9s-0.3-0.8-0.4-1.2c0-0.5-0.1-0.9-0.1-1.4v-5.9h-2.5V20h2.5v-3.2h2.2V20h3.1V21.8z"/>
	<path fill="#FFFFFF" d="M125.7,31.3h-2.2v-1.8h0c-0.3,0.6-0.7,1.1-1.4,1.5c-0.7,0.4-1.4,0.6-2.3,0.6c-0.6,0-1.1-0.1-1.6-0.3
		s-0.9-0.4-1.3-0.8c-0.4-0.4-0.7-0.8-0.9-1.4c-0.2-0.6-0.3-1.2-0.3-2V20h2.2v6.7c0,0.5,0.1,1,0.2,1.4s0.3,0.7,0.6,0.9
		c0.2,0.2,0.5,0.4,0.8,0.5s0.6,0.2,1,0.2c0.4,0,0.9-0.1,1.2-0.2c0.4-0.1,0.7-0.4,1-0.7c0.3-0.3,0.5-0.7,0.7-1.2
		c0.2-0.5,0.2-1,0.2-1.7V20h2.2V31.3z"/>
	<path fill="#FFFFFF" d="M129,20h2.2v1.6h0c0.4-0.6,1-1.1,1.7-1.4c0.7-0.3,1.5-0.5,2.2-0.5c0.9,0,1.7,0.2,2.4,0.5s1.3,0.7,1.8,1.3
		c0.5,0.5,0.9,1.2,1.2,1.9c0.3,0.7,0.4,1.5,0.4,2.3c0,0.8-0.1,1.6-0.4,2.4c-0.3,0.7-0.7,1.4-1.2,1.9c-0.5,0.5-1.1,1-1.8,1.3
		s-1.5,0.5-2.4,0.5c-0.8,0-1.6-0.2-2.3-0.5c-0.7-0.3-1.3-0.8-1.7-1.4h0v8.4H129V20z M134.9,21.7c-0.6,0-1.1,0.1-1.6,0.3
		c-0.5,0.2-0.9,0.5-1.2,0.8c-0.3,0.3-0.6,0.8-0.7,1.2c-0.2,0.5-0.3,1-0.3,1.6c0,0.6,0.1,1.1,0.3,1.6c0.2,0.5,0.4,0.9,0.7,1.2
		c0.3,0.3,0.7,0.6,1.2,0.8c0.5,0.2,1,0.3,1.6,0.3c0.6,0,1.1-0.1,1.6-0.3c0.5-0.2,0.9-0.5,1.2-0.8c0.3-0.3,0.6-0.8,0.7-1.2
		c0.2-0.5,0.3-1,0.3-1.6c0-0.6-0.1-1.1-0.3-1.6c-0.2-0.5-0.4-0.9-0.7-1.2c-0.3-0.3-0.7-0.6-1.2-0.8C136,21.8,135.5,21.7,134.9,21.7z
		"/>
	<path fill="#FFFFFF" d="M143.9,14.4h6.7c1.1,0,2.2,0.2,3.2,0.5c1,0.3,2,0.9,2.8,1.6c0.8,0.7,1.4,1.6,1.9,2.7
		c0.5,1.1,0.7,2.3,0.7,3.8c0,1.5-0.3,2.7-0.8,3.8c-0.6,1.1-1.3,1.9-2.1,2.6c-0.9,0.7-1.8,1.2-2.9,1.6c-1.1,0.3-2.1,0.5-3.1,0.5h-6.3
		V14.4z M149.2,28.6c0.9,0,1.8-0.1,2.7-0.3c0.8-0.2,1.6-0.6,2.2-1s1.1-1,1.5-1.8c0.4-0.7,0.5-1.6,0.5-2.7c0-1-0.2-1.9-0.5-2.6
		c-0.3-0.7-0.8-1.3-1.3-1.8s-1.2-0.8-2-1c-0.8-0.2-1.6-0.3-2.6-0.3H147v11.5H149.2z"/>
	<path fill="#FFFFFF" d="M162.2,14.4h11.3v2.7h-8.2v4.2h7.8V24h-7.8v4.6h8.7v2.7h-11.7V14.4z"/>
	<path fill="#FFFFFF" d="M174.8,14.4h3.5l4.6,12.8l4.8-12.8h3.3l-6.9,17h-2.6L174.8,14.4z"/>
</g>
<g>
	<circle fill="#FFFFFF" cx="25.2" cy="18.3" r="1.2"/>
	<path fill="#FFFFFF" d="M46.7,12.8l-9-9L25.5,0.5L13.2,3.8l-9,9L1,25l3.3,12.2l9,9l12.2,3.3l12.2-3.3l9-9L50,25L46.7,12.8z
		 M21.8,20.4v-1.2v-2.8c0-1.5,1-2.7,2.4-3.1V9.7h1.4v3.7c1.4,0.3,2.4,1.6,2.4,3.1v2.8v1.2v0.7c-0.8,0.3-1.9,0.5-3.1,0.5
		c-1.3,0-2.4-0.2-3.1-0.5V20.4z M36.4,37.2c-0.2,0-0.5,0-0.7-0.1l1,2.1l-2.1,0.1l-9.6-14.2l-9.6,14.2l-2.1-0.1l7.3-16.3
		c0.9,0.5,2.6,0.9,4.4,0.9c1.9,0,3.5-0.4,4.4-0.9l4.8,10.7c0.4-0.8,1.2-1.4,2.2-1.4c1.4,0,2.5,1.1,2.5,2.5S37.7,37.2,36.4,37.2z"/>
</g>
</svg>
