<svg width="250" height="250" viewBox="0 0 250 250" xmlns="http://www.w3.org/2000/svg" xmlns:xlink="http://www.w3.org/1999/xlink"><defs><rect id="a" width="66.738" height="113.437" rx="4"/><mask id="f" x="0" y="0" width="66.738" height="113.437" fill="#fff"><use xlink:href="#a"/></mask><path id="b" d="M46.674 6.673h53.39v93.42h-53.39z"/><mask id="g" x="0" y="0" width="53.39" height="93.419" fill="#fff"><use xlink:href="#b"/></mask><path id="c" d="M55.572 31.14h35.594v44.485H55.572z"/><mask id="h" x="0" y="0" width="35.594" height="44.485" fill="#fff"><use xlink:href="#c"/></mask><path id="d" d="M46.674 6.673h53.39v15.57h-53.39z"/><mask id="i" x="0" y="0" width="53.39" height="15.57" fill="#fff"><use xlink:href="#d"/></mask><path id="e" d="M46.674 84.522h53.39v15.57h-53.39z"/><mask id="j" x="0" y="0" width="53.39" height="15.57" fill="#fff"><use xlink:href="#e"/></mask></defs><g fill="none" fill-rule="evenodd"><path fill="#373232" d="M233.16 62.755L187.246 16.84 125 0 62.245 16.84 16.33 62.754 0 125l16.84 62.245 45.915 45.916L125 250l62.245-16.84 45.916-45.915L250 125"/><g transform="translate(51 69)" stroke="#FFF"><ellipse cx="72.257" cy="105.652" rx="3.337" ry="3.336"/><use mask="url(#f)" xlink:href="#a" transform="translate(40)" stroke-width="4"/><use mask="url(#g)" stroke-width="2" xlink:href="#b"/><use mask="url(#h)" stroke-width="2" xlink:href="#c"/><use mask="url(#i)" stroke-width="2" xlink:href="#d"/><use mask="url(#j)" stroke-width="2" xlink:href="#e"/><path d="M62.5 85.6v13.596M82.5 85.6v13.596"/><ellipse cx="55.572" cy="92.306" rx="1.112" ry="1.112"/><ellipse cx="73.369" cy="92.306" rx="1.112" ry="1.112"/><ellipse cx="91.166" cy="92.306" rx="1.112" ry="1.112"/><path d="M56.26 32.454l33.59 43.1M57.37 73.84L89.76 32.67"/><path stroke-width="2" d="M107.175 23.143l10.382-12.324 4.26 12.323L148.946.325l-26.28 38.54-4.26-13.173-11.232 12.61M41.028 87.994l-9 8.776-4.258-12.323L.64 107.264l26.278-38.54 4.26 13.173 9.85-11.057"/></g></g></svg>