<svg width="250" height="250" viewBox="0 0 250 250" xmlns="http://www.w3.org/2000/svg"><g fill="none" fill-rule="evenodd"><path fill="#373232" d="M233.16 62.755L187.246 16.84 125 0 62.245 16.84 16.33 62.754 0 125l16.84 62.245 45.915 45.916L125 250l62.245-16.84 45.916-45.915L250 125"/><g stroke="#FFF"><path stroke-width="2" stroke-linecap="round" stroke-linejoin="round" d="M133.698 134.88l-22.454 14.108-48.183-27.456 76.307-47.73 47.78 26.828-22.866 14.26"/><path stroke-width="2" stroke-linecap="round" stroke-linejoin="round" d="M133.698 146.86l-22.454 14.108-48.183-27.455M187.148 113.7l-22.867 14.26"/><path stroke-width="2" d="M133.698 157.752l-22.454 14.107-48.183-27.456M187.148 124.59l-22.867 14.26"/><path stroke-width="2" stroke-linecap="round" stroke-linejoin="round" d="M133.698 168.643l-22.454 14.107-48.183-27.455M187.148 135.48l-22.867 14.26M93.9 102.67l47.813 27.516-.167 34.05 16.246-10.494v-33.066l-48.987-27.12"/><path d="M157.742 120.234l-4.992 2.832" stroke-linecap="round" stroke-linejoin="round"/></g></g></svg>