<svg width="250" height="250" viewBox="0 0 250 250" xmlns="http://www.w3.org/2000/svg"><g fill="none" fill-rule="evenodd"><path fill="#373232" d="M233.16 62.755L187.246 16.84 125 0 62.245 16.84 16.33 62.754 0 125l16.84 62.245 45.915 45.916L125 250l62.245-16.84 45.916-45.915L250 125"/><g transform="translate(68 69)" stroke="#FFF"><path d="M37.037 56.944H15.74V35.648h21.297zM67.593 56.944H46.296V35.648h21.297zM37.037 88.426H15.74V67.13h21.297zM67.593 88.426H46.296V67.13h21.297zM98.148 56.944H76.852V35.648h21.296z"/><path d="M0 18.98h113.89" stroke-width="2"/><path d="M19.444 40.278h7.408M50 40.278h7.407M80.556 40.278h7.407M98.148 88.444H76.852V67.148h21.296zM80.556 71.778h7.407M19.444 71.76h7.408M50 71.76h7.407"/><path stroke-width="2" d="M113.89 104.167H0V.463h113.89v26.543z"/><circle cx="10.5" cy="9.5" r="2.5"/><circle cx="20.5" cy="9.5" r="2.5"/></g></g></svg>