<svg width="150" height="431" viewBox="0 0 150 431" xmlns="http://www.w3.org/2000/svg"><g transform="translate(-11 -1)" stroke="#373232" fill="none" fill-rule="evenodd"><path d="M159.668 576L12.553 43.603c-.295-1.068.338-2.17 1.398-2.455L163.82.785" fill="#FFB532"/><path d="M193.884 25.577L49.182 67.787l76.813 291.282 142.933-48.36zm-31.478 44.807L58.182 100.787m194.224 294.597l-104.224 30.403m42.224-381.403L86.182 74.787m134.224 214.597l-104.224 30.403m167.702 24.79l-144.702 42.21 76.813 291.282 142.933-48.36z"/><circle cx="70" cy="79" r="9"/><path d="M226.224 254.948L122 285.35l3.55 11.536 105.68-30.79m-12.322-32.148L114.684 264.35l3.55 11.536 105.68-30.79"/><circle cx="156.5" cy="168.5" r="48.5"/></g></svg>