<?xml version="1.0" encoding="utf-8"?>
<!-- Generator: Adobe Illustrator 19.2.1, SVG Export Plug-In . SVG Version: 6.00 Build 0)  -->
<svg version="1.1" id="Layer_1" xmlns="http://www.w3.org/2000/svg" xmlns:xlink="http://www.w3.org/1999/xlink" x="0px" y="0px"
	 viewBox="0 0 1 1" style="enable-background:new 0 0 1 1;" xml:space="preserve">
<style type="text/css">
	.st0{display:none;}
	.st1{display:inline;}
	.st2{fill:#FFB532;stroke:#373232;}
	.st3{fill:none;stroke:#373232;}
</style>
<title>4ED1B9A4-C77E-45F8-ACE0-02E2CC5660E7</title>
<desc>Created with sketchtool.</desc>
<g id="Page-1" class="st0">
	<g id="mvp_step_02" transform="translate(-1289.000000, -288.000000)" class="st1">
		<g id="Background_02" transform="translate(1108.000000, -60.000000)">
			<g id="ideia" transform="translate(170.000000, 348.000000)">
				<path id="Path-279" class="st2" d="M84.7,574L-62.4,41.6c-0.3-1.1,0.3-2.2,1.4-2.5L88.8-1.2"/>
				<path id="Path-286" class="st2" d="M-75-2"/>
				<polygon id="Path-202" class="st3" points="118.9,23.6 -25.8,65.8 51,357.1 193.9,308.7 				"/>
				<path id="Path-202_1_" class="st3" d="M87.4,68.4L-16.8,98.8"/>
				<path id="Path-202_2_" class="st3" d="M177.4,393.4L73.2,423.8"/>
				<path id="Path-202_3_" class="st3" d="M115.4,42.4L11.2,72.8"/>
				<path id="Path-202_4_" class="st3" d="M145.4,287.4L41.2,317.8"/>
				<polygon id="Path-202_5_" class="st3" points="208.9,342.6 64.2,384.8 141,676.1 283.9,627.7 				"/>
				<circle id="Oval-18" class="st3" cx="-5" cy="77" r="9"/>
				<polyline id="Path-202_6_" class="st3" points="151.2,252.9 47,283.4 50.6,294.9 156.2,264.1 				"/>
				<polyline id="Path-202_7_" class="st3" points="143.9,231.9 39.7,262.4 43.2,273.9 148.9,243.1 				"/>
				<circle id="Oval-19" class="st3" cx="81.5" cy="166.5" r="48.5"/>
			</g>
		</g>
	</g>
</g>
</svg>
