<svg width="293" height="245" viewBox="0 0 293 245" xmlns="http://www.w3.org/2000/svg"><g stroke="#373232" fill="none" fill-rule="evenodd"><path d="M54.89 236.974s2.383 9.438 9.605 6.31c7.22-3.13 9.06.573 11.51-21.436 2.452-22.008 3.84-67.51 13.668-79.33 9.826-11.817 22.056-21.597 46.313-33.202 24.258-11.605 35.907-17.9 35.907-17.9l-5.89-6.27-144.417 64.448 2.393 4.814 81.645-33.684s-20.362 7.357-28.74 33.237c-8.378 25.88-21.996 83.014-21.996 83.014M368.2 79.27s6.088 7.597-.764 11.467c-6.852 3.868-5.01 7.574-24.04-3.75-19.03-11.322-56.158-37.664-71.513-36.956-15.354.71-30.53 4.563-54.42 16.907-23.886 12.345-35.938 17.84-35.938 17.84l-1.447-8.48L318.6-.004l2.396 4.813-76.12 44.796s18.154-11.803 43.848-2.87C314.417 55.666 368.2 79.27 368.2 79.27" fill="#FF8532"/><path d="M11.197 145.705l51.478-25.607 58.144-28.925 39.956-1.398 1.19 50.687-4.295 21.08-44.634 26.36-40.724 13.79-21.812-7.627-23.44-26.685zM313.025-4.44l-50.003 24.873-56.478 28.097-24.288 30.56 39.155 31.802 19.067 9.46 46.624-19.038 34.475-23.616 6.66-21.792-7.378-34.675z"/><path d="M319.655 28.114c5.697 17.954 14.546 32.957-3.058 47.718-17.602 14.762-67.61 44.26-81.845 40.716-14.237-3.545-39.343-28.94-42.477-34.31-3.133-5.37-3.863-10.552 12.26-24.577C220.66 43.636 301.386 6.25 305.83 5.887c4.44-.36 8.128 4.273 13.827 22.228m-163.303 71.994c2.394 5.738 7.5 41.08 1.74 54.574-5.76 13.492-59.454 35.58-81.845 40.714-22.394 5.134-29.02-10.974-39.903-26.348-10.883-15.377-12.35-21.114-9.384-24.438 2.966-3.322 81.484-45.154 102.395-49.55 20.912-4.4 24.605-.69 26.997 5.048m91.17-77.69C190.86 50.603 185.647 67.98 171.2 76.09c-1.218.684-2.348 1.307-3.442 1.906-1.135.51-2.313 1.037-3.593 1.596-15.182 6.628-32.19.304-88.85 28.49-56.663 28.187-73.89 39.992-73.89 39.992l5.157 10.37s6.297-3.133 12.21.394c5.912 3.526 18.417 39.81 43.932 45.595 25.516 5.786 85.887-27.017 99.045-39.568 13.16-12.554 2.877-49.94 6.227-59.923.095-.28.205-.55.32-.815 1.603-1.712 4.878-4.945 8.804-7.315 4.257-1.7 8.81-2.363 11.144-2.607.283.068.564.143.843.235 9.983 3.352 33.597 34.105 51.546 31.183 17.95-2.922 80.53-31.282 91.31-55.124 10.777-23.84-10.616-55.703-9.864-62.545.754-6.842 7.05-9.974 7.05-9.974l-5.16-10.368s-19.805 6.618-76.467 34.805" fill="#FF8532"/></g></svg>