<svg id="Layer_1" xmlns="http://www.w3.org/2000/svg" viewBox="0 0 142 142"><style>.st0{display:none;fill:#373232;stroke:#FFFFFF;stroke-width:2;stroke-opacity:0.25;} .st1{fill:none;stroke:#FF8532;stroke-width:2;}</style><g id="Page-1"><g id="mvp_case_02"><g id="group_process"><g id="ic_person_design"><path id="Mask-Copy-2" class="st0" d="M1 71c0 38.7 31.3 70 70 70s70-31.3 70-70S109.7 1 71 1 1 32.3 1 71z"/><path id="Stroke-1" class="st1" d="M74.7 83.4c0-2.5-2-4.4-4.5-4.4h-7.9V65.8l1.1 1c.7.7 1.6 1 2.6 1 .6 0 1.2-.1 1.7-.4L81.6 60l1 .9c.3.2.6.3.9.3.4 0 .8-.2 1.1-.5.5-.6.4-1.6-.2-2.1l-1-.9c.3-.9.2-1.9-.3-2.8-.9-1.8-3.1-2.5-4.9-1.6l-2.5-2.1-.9-.7c-.6-.5-1.6-.4-2.1.2-.5.6-.4 1.5.2 2l2.4 2-8.8 4.7-4.3-4.1V54.1c0-3-2.4-5.4-5.4-5.4h-5c-3 0-5.4 2.4-5.4 5.4v29c0 2.2 1.5 4 3.6 4.4 1 .2 14.6.1 15.8.1v16.7c0 2.5 2 4.4 4.5 4.4s4.5-2 4.5-4.4V83.4h-.1z"/><path id="Stroke-3" class="st1" d="M54.3 47.3c4.8 0 8.7-3.9 8.7-8.7 0-4.8-3.9-8.7-8.7-8.7-4.8 0-8.7 3.9-8.7 8.7 0 4.8 3.9 8.7 8.7 8.7z"/><path id="Stroke-5" class="st1" d="M63.1 93.4c0-1.6-1.3-3-3-3H42.9V63.9c0-1.6-1.3-3-3-3-1.6 0-3 1.3-3 3v42.3c0 1.6 1.3 3 3 3 1.6 0 3-1.3 3-3v-9.8h14.2v9.8c0 1.6 1.3 3 3 3 1.6 0 3-1.3 3-3V93.4z"/><path id="Stroke-7" class="st1" d="M103.6 67H81c-1 0-1.9.8-1.9 1.9v4.6c0 1 .8 1.9 1.9 1.9h4.8v31.3c0 1.1.9 2.1 2.1 2.1h8c1.1 0 2.1-.9 2.1-2.1V75.3h5.7c1 0 1.9-.8 1.9-1.9v-4.6c-.1-1-1-1.8-2-1.8z"/></g></g></g></g></svg>