<svg id="Layer_1" xmlns="http://www.w3.org/2000/svg" viewBox="0 0 142 142"><style>.st0{display:none;fill:#373232;stroke:#FFFFFF;stroke-width:2;stroke-opacity:0.25;} .st1{fill:none;stroke:#FF8532;stroke-width:2;} .st2{fill:#FF8532;}</style><g id="Page-1"><g id="mvp_case_01"><g id="group_problem"><g id="ic_person_kick"><g id="Capa_1"><g id="Group" transform="translate(1 1)"><circle id="Mask" class="st0" cx="70" cy="70" r="70"/><path id="Shape" class="st1" d="M64.2 86.4l-6-1c-1.2-.2-2.4-.7-3.3-1.4v26.9c0 2.6 2.1 4.6 4.7 4.6s4.7-2.1 4.7-4.6V86.4h-.1z"/><path id="Shape_1_" class="st1" d="M47.1 55.8l-6.7 15.4c-1 2.2.1 4.8 2.3 5.8.6.2 1.2.4 1.7.4 1.7 0 3.3-1 4.1-2.7l5.8-13.4 3.4-.9-2.5 17.4-.3 2.1v.2c-.1.6-.1 1.2 0 1.7.4 1.8 1.8 3.3 3.8 3.6l5.5.9L79.8 89v13c0 2.6 2.1 4.6 4.7 4.6s4.7-2.1 4.7-4.6V85c0-2.3-1.6-4.2-3.9-4.6L70.7 78s3.5-24.3 3.5-24.6c.1-.5 0-1.1-.1-1.7-.5-2-2.3-3.3-4.3-3.3-.4 0-.7 0-1.1.1L50 53.1c-1.3.5-2.4 1.4-2.9 2.7z"/><path id="Shape_2_" class="st1" d="M68.7 43.9c1.2.5 2.5.8 3.9.8h.7c5.1-.4 9.2-4.6 9.2-9.8 0-5.4-4.4-9.8-9.9-9.8-.7 0-1.4.1-2.1.2-.8.2-1.6.5-2.4.8-3.2 1.6-5.4 4.9-5.4 8.8 0 4 2.5 7.5 6 9z"/></g></g><g id="soccer-ball"><g id="Group_1_"><path id="Shape_3_" class="st2" d="M100.824 63.253c-.1-2-.7-3.8-1.8-5.3-1.5-2.1-3.6-3.6-6.2-4.3-.8-.2-1.6-.3-2.5-.3-1.1 0-2.2.2-3.2.5-2.5.8-4.6 2.5-5.8 4.7-.7 1.2-1.2 2.6-1.4 4-.1.4-.1.9-.1 1.3 0 2.3.8 4.5 2 6.2 1.3 1.7 3 3 5.1 3.7 1 .4 2.2.6 3.3.6 1.6 0 3.1-.4 4.4-1 1.5-.7 2.7-1.7 3.7-2.9 1.5-1.8 2.3-4.1 2.3-6.6.2-.2.2-.4.2-.6zm-2.2 0l-2.2 3.7 1.4 2.5c-1 1.3-2.2 2.3-3.7 3l-1.1-1.9h-4.2l-1.3 2.3c-2.1-.6-3.8-2-5-3.7l1.6-2.8-2.1-3.8h-1.1c.2-1.5.7-2.8 1.5-4h3l2.2-3.7c.8-.3 1.8-.5 2.7-.5.7 0 1.4.1 2 .2l-.1.2 2.2 3.7h3.8c.9 1.4 1.5 3 1.6 4.7h-1.2v.1z"/><path id="Shape_4_" class="st2" d="M88.124 59.953l-2.1 3.8 2.1 3.7h4.4l2.1-3.7-2.1-3.8z"/></g></g></g></g></g></g></svg>