<svg id="Layer_1" xmlns="http://www.w3.org/2000/svg" viewBox="0 0 142 142"><style>.st0{display:none;fill:#373232;stroke:#FFFFFF;stroke-width:2;stroke-opacity:0.25;} .st1{fill:none;stroke:#FF8532;stroke-width:1.5;} .st2{fill:#FF8532;}</style><g id="Page-1"><g id="mvp_case_02"><g id="group_discovery"><g id="ic_laptop"><path id="Mask" class="st0" d="M1 71c0 38.7 31.3 70 70 70s70-31.3 70-70S109.7 1 71 1 1 32.3 1 71z"/><path id="Stroke-1" class="st1" d="M109.5 98h-77c-1.5 0-2.8-1-2.8-2.2h35.8c0 .6.6 1.1 1.4 1.1h8.2c.8 0 1.4-.5 1.4-1.1h35.8c-.1 1.2-1.3 2.2-2.8 2.2zM32.8 47.9c0-1.8 1.6-3.2 3.6-3.2h69.4c2 0 3.6 1.4 3.6 3.2V89H32.8V47.9zm81.8 44.9h-1.4V47.3c0-3.5-2.9-6.3-6.5-6.3H35.3c-3.6 0-6.5 2.8-6.5 6.3v45.6h-1.4c-.8 0-1.4.6-1.4 1.4v1.4c0 3 2.5 5.5 5.6 5.5h78.8c3.1 0 5.6-2.4 5.6-5.5v-1.4c0-.9-.6-1.5-1.4-1.5z"/><path id="Stroke-3" class="st1" d="M28.2 92.8h85.5"/><g id="Group"><path id="Stroke-5" class="st1" d="M71.2 81.85c7.6 0 13.7-6.2 13.7-13.8H71.2v-13.8c-7.6 0-13.7 6.2-13.7 13.8 0 7.6 6.1 13.8 13.7 13.8z"/><path id="Stroke-7" class="st1" d="M73.9 51.45v13.8h13.7c0-7.6-6.1-13.8-13.7-13.8z"/><path id="Stroke-9" class="st1" d="M60.6 78.55l-.8-.8-2.9 3h-8.2v1.2h8.7z"/><path id="Stroke-11" class="st1" d="M88.1 54.15H94v-1.2h-6.3l-2.6 2.6.8.8z"/></g><path id="Stroke-13" class="st2" d="M37.1 50.6h8.8v-1.7h-8.8z"/><path id="Stroke-15" class="st2" d="M37.1 54.2h4.7v-1.8h-4.7z"/><path id="Stroke-16" class="st2" d="M37.1 57.7h7.6V56h-7.6z"/><path id="Stroke-17" class="st1" d="M95.2 79.6c1.4 0 2.6 1.2 2.6 2.6 0 1.4-1.1 2.6-2.6 2.6s-2.6-1.2-2.6-2.6c0-1.4 1.1-2.6 2.6-2.6z"/><path id="Stroke-18" class="st1" d="M103.1 79.6c1.4 0 2.6 1.2 2.6 2.6 0 1.4-1.1 2.6-2.6 2.6s-2.6-1.2-2.6-2.6c0-1.4 1.1-2.6 2.6-2.6z"/></g></g></g></g></svg>