<?xml version="1.0" encoding="UTF-8" standalone="no"?>
<svg width="55px" height="55px" viewBox="0 0 55 55" version="1.1" xmlns="http://www.w3.org/2000/svg" xmlns:xlink="http://www.w3.org/1999/xlink">
    <!-- Generator: sketchtool 3.6.1 (26313) - http://www.bohemiancoding.com/sketch -->
    <title>BD4C4EF3-D743-4C62-BAEE-8FCAAC7F487A</title>
    <desc>Created with sketchtool.</desc>
    <defs></defs>
    <g id="Page-1" stroke="none" stroke-width="1" fill="none" fill-rule="evenodd">
        <g id="description" transform="translate(-693.000000, -641.000000)">
            <g id="scrolling" transform="translate(694.000000, 642.000000)">
                <g id="icon">
                    <path d="M27.7749,38.0297 L24.8119,38.0297 C22.2189,38.0297 20.0959,35.9077 20.0959,33.3137 L20.0959,19.9667 C20.0959,17.3737 22.2189,15.2517 24.8119,15.2517 L27.7749,15.2517 C30.3689,15.2517 32.4909,17.3737 32.4909,19.9667 L32.4909,33.3137 C32.4909,35.9077 30.3689,38.0297 27.7749,38.0297 L27.7749,38.0297 Z" id="Stroke-1" stroke="#FFFFFF" stroke-width="2"></path>
                    <path d="M26.4411,20.1594 L26.1451,20.1594 C25.8871,20.1594 25.6761,20.3704 25.6761,20.6294 L25.6761,23.6104 C25.6761,23.8684 25.8871,24.0804 26.1451,24.0804 L26.4411,24.0804 C26.7001,24.0804 26.9111,23.8684 26.9111,23.6104 L26.9111,20.6294 C26.9111,20.3704 26.7001,20.1594 26.4411,20.1594" id="Fill-3" fill="#FFFFFF"></path>
                    <path d="M52.7425,26.6285 C52.7425,41.1935 40.9355,53.0005 26.3705,53.0005 C11.8065,53.0005 0.0005,41.1935 0.0005,26.6285 C0.0005,12.0635 11.8065,0.2565 26.3705,0.2565 C40.9355,0.2565 52.7425,12.0635 52.7425,26.6285 L52.7425,26.6285 Z" id="Stroke-5" stroke="#FFFFFF" stroke-width="2"></path>
                </g>
            </g>
        </g>
    </g>
</svg>